<svg width="243" height="70" viewBox="0 0 243 70" fill="none" xmlns="http://www.w3.org/2000/svg">
<path d="M76.376 31V22.728H77.544L80.632 27.08L83.72 22.728H84.904V31H83.656V24.696L80.6 28.888L77.576 24.696V31H76.376ZM87.6573 31V22.728H88.8893V29.272L93.8013 22.728H95.0013V31H93.7693V24.456L88.8413 31H87.6573ZM97.751 31V22.728H98.983V26.296H103.751V22.728H104.983V31H103.751V27.384H98.983V31H97.751ZM109.015 33.608C108.418 33.608 107.831 33.4693 107.255 33.192L107.671 32.216C108.066 32.4187 108.498 32.52 108.967 32.52C109.341 32.52 109.655 32.4027 109.911 32.168C110.167 31.944 110.418 31.544 110.663 30.968L106.903 22.728H108.263L111.271 29.624L113.927 22.728H115.239L111.767 31.272C111.415 32.1147 111.026 32.712 110.599 33.064C110.173 33.4267 109.645 33.608 109.015 33.608ZM119.189 31V23.816H116.229V22.728H123.397V23.816H120.437V31H119.189ZM129.985 31V22.728H131.217V26.296H135.985V22.728H137.217V31H135.985V27.384H131.217V31H129.985ZM142.434 31.176C141.591 31.176 140.866 30.9467 140.258 30.488C139.65 30.0293 139.346 29.3893 139.346 28.568C139.346 27.704 139.666 27.0373 140.306 26.568C140.946 26.0987 141.804 25.864 142.882 25.864C143.735 25.864 144.578 25.9813 145.41 26.216V25.96C145.41 25.2347 145.196 24.68 144.77 24.296C144.343 23.912 143.74 23.72 142.962 23.72C142.151 23.72 141.314 23.9173 140.45 24.312L140.082 23.304C141.106 22.8347 142.108 22.6 143.09 22.6C144.263 22.6 145.154 22.904 145.762 23.512C146.338 24.088 146.626 24.8987 146.626 25.944V31H145.41V29.768C144.674 30.7067 143.682 31.176 142.434 31.176ZM142.674 30.184C143.442 30.184 144.092 29.976 144.626 29.56C145.159 29.144 145.426 28.6107 145.426 27.96V27.192C144.615 26.9573 143.81 26.84 143.01 26.84C142.252 26.84 141.66 26.9947 141.234 27.304C140.807 27.6027 140.594 28.0133 140.594 28.536C140.594 29.0373 140.791 29.4373 141.186 29.736C141.591 30.0347 142.087 30.184 142.674 30.184ZM160.896 29.928C160.064 30.7707 159.035 31.192 157.808 31.192C156.582 31.192 155.558 30.7707 154.736 29.928C153.926 29.0853 153.52 28.0667 153.52 26.872C153.52 25.688 153.931 24.6747 154.752 23.832C155.584 22.9787 156.614 22.552 157.84 22.552C159.067 22.552 160.091 22.9733 160.912 23.816C161.734 24.6587 162.144 25.6773 162.144 26.872C162.144 28.056 161.728 29.0747 160.896 29.928ZM157.84 30.088C158.726 30.088 159.451 29.7787 160.016 29.16C160.592 28.5413 160.88 27.7787 160.88 26.872C160.88 25.976 160.582 25.2133 159.984 24.584C159.398 23.9547 158.672 23.64 157.808 23.64C156.923 23.64 156.198 23.9547 155.632 24.584C155.067 25.2027 154.784 25.9653 154.784 26.872C154.784 27.768 155.078 28.5307 155.664 29.16C156.251 29.7787 156.976 30.088 157.84 30.088ZM163.16 33.064V29.912H164.056C164.792 28.5573 165.16 26.6427 165.16 24.168V22.728H171.048V29.912H172.296L172.104 33.064H171.08V31H164.392L164.168 33.064H163.16ZM165.368 29.912H169.816V23.816H166.344V24.968C166.344 27.048 166.019 28.696 165.368 29.912ZM180.849 29.928C180.017 30.7707 178.988 31.192 177.761 31.192C176.535 31.192 175.511 30.7707 174.689 29.928C173.879 29.0853 173.473 28.0667 173.473 26.872C173.473 25.688 173.884 24.6747 174.705 23.832C175.537 22.9787 176.567 22.552 177.793 22.552C179.02 22.552 180.044 22.9733 180.865 23.816C181.687 24.6587 182.097 25.6773 182.097 26.872C182.097 28.056 181.681 29.0747 180.849 29.928ZM177.793 30.088C178.679 30.088 179.404 29.7787 179.969 29.16C180.545 28.5413 180.833 27.7787 180.833 26.872C180.833 25.976 180.535 25.2133 179.937 24.584C179.351 23.9547 178.625 23.64 177.761 23.64C176.876 23.64 176.151 23.9547 175.585 24.584C175.02 25.2027 174.737 25.9653 174.737 26.872C174.737 27.768 175.031 28.5307 175.617 29.16C176.204 29.7787 176.929 30.088 177.793 30.088ZM188.217 31.192C186.948 31.192 185.929 30.776 185.161 29.944C184.404 29.1013 184.025 27.9653 184.025 26.536C184.025 26.0133 184.036 25.5707 184.057 25.208C184.078 24.8347 184.121 24.424 184.185 23.976C184.249 23.528 184.35 23.144 184.489 22.824C184.628 22.504 184.804 22.1893 185.017 21.88C185.241 21.5707 185.529 21.3093 185.881 21.096C186.233 20.8827 186.644 20.7227 187.113 20.616L191.721 19.528L191.961 20.568L187.481 21.672C186.649 21.8853 186.052 22.2267 185.689 22.696C185.337 23.1547 185.129 23.7947 185.065 24.616C185.769 23.4213 186.91 22.824 188.489 22.824C189.577 22.824 190.51 23.2293 191.289 24.04C192.068 24.84 192.457 25.8053 192.457 26.936C192.457 28.1093 192.052 29.112 191.241 29.944C190.43 30.776 189.422 31.192 188.217 31.192ZM188.249 30.088C189.092 30.088 189.79 29.7893 190.345 29.192C190.9 28.584 191.177 27.8427 191.177 26.968C191.177 26.104 190.889 25.368 190.313 24.76C189.748 24.152 189.049 23.848 188.217 23.848C187.374 23.848 186.676 24.152 186.121 24.76C185.566 25.3573 185.289 26.0933 185.289 26.968C185.289 27.832 185.572 28.568 186.137 29.176C186.713 29.784 187.417 30.088 188.249 30.088ZM194.689 33.56V22.728H195.921V24.392C196.753 23.1653 197.809 22.552 199.089 22.552C200.145 22.552 201.067 22.9467 201.857 23.736C202.646 24.5147 203.041 25.56 203.041 26.872C203.041 28.1627 202.646 29.2027 201.857 29.992C201.067 30.7813 200.145 31.176 199.089 31.176C197.787 31.176 196.731 30.5893 195.921 29.416V33.56H194.689ZM198.865 30.072C199.697 30.072 200.39 29.784 200.945 29.208C201.499 28.6213 201.777 27.8373 201.777 26.856C201.777 25.9067 201.494 25.1387 200.929 24.552C200.363 23.9547 199.675 23.656 198.865 23.656C198.065 23.656 197.366 23.96 196.769 24.568C196.171 25.176 195.873 25.944 195.873 26.872C195.873 27.8 196.171 28.568 196.769 29.176C197.366 29.7733 198.065 30.072 198.865 30.072ZM208.93 31.192C207.767 31.192 206.786 30.792 205.986 29.992C205.196 29.1813 204.802 28.1413 204.802 26.872C204.802 25.6667 205.18 24.648 205.938 23.816C206.695 22.9733 207.639 22.552 208.77 22.552C209.954 22.552 210.892 22.968 211.586 23.8C212.279 24.632 212.626 25.6773 212.626 26.936C212.626 27.096 212.62 27.24 212.61 27.368H206.049C206.135 28.2107 206.45 28.8827 206.994 29.384C207.548 29.8747 208.204 30.12 208.962 30.12C209.954 30.12 210.823 29.7307 211.57 28.952L212.338 29.64C211.41 30.6747 210.274 31.192 208.93 31.192ZM206.049 26.376H211.378C211.303 25.576 211.036 24.9147 210.578 24.392C210.13 23.8587 209.516 23.592 208.738 23.592C208.034 23.592 207.431 23.8533 206.93 24.376C206.428 24.8987 206.135 25.5653 206.049 26.376ZM214.782 31V22.728H216.014V26.296H220.782V22.728H222.014V31H220.782V27.384H216.014V31H214.782ZM224.767 31V22.728H225.999V29.272L230.911 22.728H232.111V31H230.879V24.456L225.951 31H224.767ZM238.476 31.192C237.314 31.192 236.332 30.792 235.532 29.992C234.743 29.1813 234.348 28.1413 234.348 26.872C234.348 25.6667 234.727 24.648 235.484 23.816C236.242 22.9733 237.186 22.552 238.316 22.552C239.5 22.552 240.439 22.968 241.132 23.8C241.826 24.632 242.172 25.6773 242.172 26.936C242.172 27.096 242.167 27.24 242.156 27.368H235.596C235.682 28.2107 235.996 28.8827 236.54 29.384C237.095 29.8747 237.751 30.12 238.508 30.12C239.5 30.12 240.37 29.7307 241.116 28.952L241.884 29.64C240.956 30.6747 239.82 31.192 238.476 31.192ZM235.596 26.376H240.924C240.85 25.576 240.583 24.9147 240.124 24.392C239.676 23.8587 239.063 23.592 238.284 23.592C237.58 23.592 236.978 23.8533 236.476 24.376C235.975 24.8987 235.682 25.5653 235.596 26.376Z" fill="black"/>
<circle cx="34" cy="34" r="20" fill="#FB0937"/>
<path d="M23.784 39H32.072V36.872H27.192L29.016 35.464C31 33.928 31.96 33 31.96 31.128C31.96 29 30.424 27.64 28.104 27.64C26.104 27.64 25.032 28.456 23.928 29.96L25.656 31.352C26.488 30.328 27.08 29.848 27.944 29.848C28.824 29.848 29.448 30.36 29.448 31.304C29.448 32.232 28.904 32.84 27.512 33.992L23.784 37.048V39ZM38.7928 39.192C41.7847 39.192 43.7848 36.648 43.7848 33.4C43.7848 30.12 41.7847 27.608 38.8248 27.608C35.8488 27.608 33.8328 30.152 33.8328 33.4C33.8328 36.68 35.8008 39.192 38.7928 39.192ZM38.8248 36.968C37.3368 36.968 36.3608 35.448 36.3608 33.4C36.3608 31.32 37.3208 29.832 38.7928 29.832C40.2648 29.832 41.2568 31.368 41.2568 33.4C41.2568 35.464 40.3128 36.968 38.8248 36.968Z" fill="white"/>
<path d="M64.5 46H197.5L222 69" stroke="black" stroke-linecap="round" stroke-linejoin="round"/>
<path d="M66.5 34C66.5 52.5085 51.7184 67.5 33.5 67.5C15.2816 67.5 0.5 52.5085 0.5 34C0.5 15.4915 15.2816 0.5 33.5 0.5C51.7184 0.5 66.5 15.4915 66.5 34Z" stroke="black"/>
</svg>
