<svg width="281" height="72" viewBox="0 0 281 72" fill="none" xmlns="http://www.w3.org/2000/svg">
<path d="M78.184 26.552C77.704 27.1173 77.096 27.4 76.36 27.4C75.624 27.4 75.016 27.1227 74.536 26.568C74.0667 26.0027 73.832 25.3253 73.832 24.536C73.832 23.7573 74.072 23.0853 74.552 22.52C75.032 21.9547 75.6453 21.672 76.392 21.672C77.128 21.672 77.7307 21.9547 78.2 22.52C78.6693 23.0747 78.904 23.7467 78.904 24.536C78.904 25.3147 78.664 25.9867 78.184 26.552ZM74.984 33L83.208 21.8H84.344L76.136 33H74.984ZM82.952 33.128C82.216 33.128 81.6133 32.8507 81.144 32.296C80.6747 31.7307 80.44 31.0533 80.44 30.264C80.44 29.4853 80.68 28.8133 81.16 28.248C81.64 27.6827 82.248 27.4 82.984 27.4C83.72 27.4 84.3227 27.6827 84.792 28.248C85.2613 28.8027 85.496 29.4747 85.496 30.264C85.496 31.0533 85.256 31.7307 84.776 32.296C84.3067 32.8507 83.6987 33.128 82.952 33.128ZM76.392 26.504C76.8187 26.504 77.1653 26.3173 77.432 25.944C77.7093 25.56 77.848 25.0907 77.848 24.536C77.848 23.9813 77.704 23.5173 77.416 23.144C77.128 22.76 76.776 22.568 76.36 22.568C75.9333 22.568 75.5813 22.76 75.304 23.144C75.0373 23.5173 74.904 23.9813 74.904 24.536C74.904 25.0907 75.048 25.56 75.336 25.944C75.624 26.3173 75.976 26.504 76.392 26.504ZM82.984 32.232C83.4213 32.232 83.7733 32.0453 84.04 31.672C84.3067 31.2987 84.44 30.8293 84.44 30.264C84.44 29.7093 84.296 29.2453 84.008 28.872C83.72 28.488 83.368 28.296 82.952 28.296C82.5253 28.296 82.1733 28.488 81.896 28.872C81.6293 29.2453 81.496 29.7093 81.496 30.264C81.496 30.8187 81.64 31.288 81.928 31.672C82.216 32.0453 82.568 32.232 82.984 32.232ZM96.2446 33.192C95.05 33.192 94.042 32.7707 93.2206 31.928C92.41 31.0747 92.0046 30.056 92.0046 28.872C92.0046 27.688 92.41 26.6747 93.2206 25.832C94.042 24.9787 95.05 24.552 96.2446 24.552C97.5246 24.552 98.6286 25.0427 99.5566 26.024L98.7726 26.856C98.0046 26.0453 97.1566 25.64 96.2286 25.64C95.3966 25.64 94.6926 25.9547 94.1166 26.584C93.5513 27.2027 93.2686 27.9653 93.2686 28.872C93.2686 29.768 93.5566 30.5307 94.1326 31.16C94.7193 31.7787 95.4446 32.088 96.3086 32.088C97.194 32.088 98.026 31.672 98.8046 30.84L99.6206 31.592C98.6606 32.6587 97.5353 33.192 96.2446 33.192ZM103.657 33V25.816H100.697V24.728H107.865V25.816H104.905V33H103.657ZM116.521 31.928C115.689 32.7707 114.66 33.192 113.433 33.192C112.207 33.192 111.183 32.7707 110.361 31.928C109.551 31.0853 109.145 30.0667 109.145 28.872C109.145 27.688 109.556 26.6747 110.377 25.832C111.209 24.9787 112.239 24.552 113.465 24.552C114.692 24.552 115.716 24.9733 116.537 25.816C117.359 26.6587 117.769 27.6773 117.769 28.872C117.769 30.056 117.353 31.0747 116.521 31.928ZM113.465 32.088C114.351 32.088 115.076 31.7787 115.641 31.16C116.217 30.5413 116.505 29.7787 116.505 28.872C116.505 27.976 116.207 27.2133 115.609 26.584C115.023 25.9547 114.297 25.64 113.433 25.64C112.548 25.64 111.823 25.9547 111.257 26.584C110.692 27.2027 110.409 27.9653 110.409 28.872C110.409 29.768 110.703 30.5307 111.289 31.16C111.876 31.7787 112.601 32.088 113.465 32.088ZM120.001 33V24.728H121.233V31.272L126.145 24.728H127.345V33H126.113V26.456L121.185 33H120.001ZM130.095 33V24.728H131.263L134.351 29.08L137.439 24.728H138.623V33H137.375V26.696L134.319 30.888L131.295 26.696V33H130.095ZM148.24 31.928C147.408 32.7707 146.379 33.192 145.152 33.192C143.925 33.192 142.901 32.7707 142.08 31.928C141.269 31.0853 140.864 30.0667 140.864 28.872C140.864 27.688 141.275 26.6747 142.096 25.832C142.928 24.9787 143.957 24.552 145.184 24.552C146.411 24.552 147.435 24.9733 148.256 25.816C149.077 26.6587 149.488 27.6773 149.488 28.872C149.488 30.056 149.072 31.0747 148.24 31.928ZM145.184 32.088C146.069 32.088 146.795 31.7787 147.36 31.16C147.936 30.5413 148.224 29.7787 148.224 28.872C148.224 27.976 147.925 27.2133 147.328 26.584C146.741 25.9547 146.016 25.64 145.152 25.64C144.267 25.64 143.541 25.9547 142.976 26.584C142.411 27.2027 142.128 27.9653 142.128 28.872C142.128 29.768 142.421 30.5307 143.008 31.16C143.595 31.7787 144.32 32.088 145.184 32.088ZM155.448 33.192C154.253 33.192 153.245 32.7707 152.424 31.928C151.613 31.0747 151.208 30.056 151.208 28.872C151.208 27.688 151.613 26.6747 152.424 25.832C153.245 24.9787 154.253 24.552 155.448 24.552C156.728 24.552 157.832 25.0427 158.76 26.024L157.976 26.856C157.208 26.0453 156.36 25.64 155.432 25.64C154.6 25.64 153.896 25.9547 153.32 26.584C152.754 27.2027 152.472 27.9653 152.472 28.872C152.472 29.768 152.76 30.5307 153.336 31.16C153.922 31.7787 154.648 32.088 155.512 32.088C156.397 32.088 157.229 31.672 158.008 30.84L158.824 31.592C157.864 32.6587 156.738 33.192 155.448 33.192ZM162.86 33V25.816H159.9V24.728H167.068V25.816H164.108V33H162.86ZM168.86 33V24.728H170.092V31.272L175.004 24.728H176.204V33H174.972V26.456L170.044 33H168.86ZM186.215 33.176C185.372 33.176 184.647 32.9467 184.039 32.488C183.431 32.0293 183.127 31.3893 183.127 30.568C183.127 29.704 183.447 29.0373 184.087 28.568C184.727 28.0987 185.586 27.864 186.663 27.864C187.516 27.864 188.359 27.9813 189.191 28.216V27.96C189.191 27.2347 188.978 26.68 188.551 26.296C188.124 25.912 187.522 25.72 186.743 25.72C185.932 25.72 185.095 25.9173 184.231 26.312L183.863 25.304C184.887 24.8347 185.89 24.6 186.871 24.6C188.044 24.6 188.935 24.904 189.543 25.512C190.119 26.088 190.407 26.8987 190.407 27.944V33H189.191V31.768C188.455 32.7067 187.463 33.176 186.215 33.176ZM186.455 32.184C187.223 32.184 187.874 31.976 188.407 31.56C188.94 31.144 189.207 30.6107 189.207 29.96V29.192C188.396 28.9573 187.591 28.84 186.791 28.84C186.034 28.84 185.442 28.9947 185.015 29.304C184.588 29.6027 184.375 30.0133 184.375 30.536C184.375 31.0373 184.572 31.4373 184.967 31.736C185.372 32.0347 185.868 32.184 186.455 32.184ZM193.017 33V24.728H197.017C197.838 24.728 198.494 24.9147 198.985 25.288C199.475 25.6613 199.721 26.1627 199.721 26.792C199.721 27.6773 199.262 28.312 198.345 28.696C199.561 29.0267 200.169 29.7093 200.169 30.744C200.169 31.4373 199.897 31.9867 199.353 32.392C198.809 32.7973 198.078 33 197.161 33H193.017ZM194.249 31.944H197.001C197.587 31.944 198.051 31.8213 198.393 31.576C198.734 31.3307 198.905 30.9893 198.905 30.552C198.905 30.1467 198.723 29.832 198.361 29.608C198.009 29.384 197.502 29.272 196.841 29.272H194.249V31.944ZM194.249 28.28H196.793C197.305 28.28 197.71 28.168 198.009 27.944C198.318 27.7093 198.473 27.3787 198.473 26.952C198.473 26.6 198.329 26.3173 198.041 26.104C197.753 25.8907 197.347 25.784 196.825 25.784H194.249V28.28ZM204.392 33V25.816H201.432V24.728H208.6V25.816H205.64V33H204.392ZM217.256 31.928C216.424 32.7707 215.394 33.192 214.168 33.192C212.941 33.192 211.917 32.7707 211.096 31.928C210.285 31.0853 209.88 30.0667 209.88 28.872C209.88 27.688 210.29 26.6747 211.112 25.832C211.944 24.9787 212.973 24.552 214.2 24.552C215.426 24.552 216.45 24.9733 217.272 25.816C218.093 26.6587 218.504 27.6773 218.504 28.872C218.504 30.056 218.088 31.0747 217.256 31.928ZM214.2 32.088C215.085 32.088 215.81 31.7787 216.376 31.16C216.952 30.5413 217.24 29.7787 217.24 28.872C217.24 27.976 216.941 27.2133 216.344 26.584C215.757 25.9547 215.032 25.64 214.168 25.64C213.282 25.64 212.557 25.9547 211.992 26.584C211.426 27.2027 211.144 27.9653 211.144 28.872C211.144 29.768 211.437 30.5307 212.024 31.16C212.61 31.7787 213.336 32.088 214.2 32.088ZM220.735 33V24.728H221.903L224.991 29.08L228.079 24.728H229.263V33H228.015V26.696L224.959 30.888L221.935 26.696V33H220.735ZM238.881 31.928C238.049 32.7707 237.019 33.192 235.793 33.192C234.566 33.192 233.542 32.7707 232.721 31.928C231.91 31.0853 231.505 30.0667 231.505 28.872C231.505 27.688 231.915 26.6747 232.737 25.832C233.569 24.9787 234.598 24.552 235.825 24.552C237.051 24.552 238.075 24.9733 238.897 25.816C239.718 26.6587 240.129 27.6773 240.129 28.872C240.129 30.056 239.713 31.0747 238.881 31.928ZM235.825 32.088C236.71 32.088 237.435 31.7787 238.001 31.16C238.577 30.5413 238.865 29.7787 238.865 28.872C238.865 27.976 238.566 27.2133 237.969 26.584C237.382 25.9547 236.657 25.64 235.793 25.64C234.907 25.64 234.182 25.9547 233.617 26.584C233.051 27.2027 232.769 27.9653 232.769 28.872C232.769 29.768 233.062 30.5307 233.649 31.16C234.235 31.7787 234.961 32.088 235.825 32.088ZM246.248 33.192C244.979 33.192 243.96 32.776 243.192 31.944C242.435 31.1013 242.056 29.9653 242.056 28.536C242.056 28.0133 242.067 27.5707 242.088 27.208C242.11 26.8347 242.152 26.424 242.216 25.976C242.28 25.528 242.382 25.144 242.52 24.824C242.659 24.504 242.835 24.1893 243.048 23.88C243.272 23.5707 243.56 23.3093 243.912 23.096C244.264 22.8827 244.675 22.7227 245.144 22.616L249.752 21.528L249.992 22.568L245.512 23.672C244.68 23.8853 244.083 24.2267 243.72 24.696C243.368 25.1547 243.16 25.7947 243.096 26.616C243.8 25.4213 244.942 24.824 246.52 24.824C247.608 24.824 248.542 25.2293 249.32 26.04C250.099 26.84 250.488 27.8053 250.488 28.936C250.488 30.1093 250.083 31.112 249.272 31.944C248.462 32.776 247.454 33.192 246.248 33.192ZM246.28 32.088C247.123 32.088 247.822 31.7893 248.376 31.192C248.931 30.584 249.208 29.8427 249.208 28.968C249.208 28.104 248.92 27.368 248.344 26.76C247.779 26.152 247.08 25.848 246.248 25.848C245.406 25.848 244.707 26.152 244.152 26.76C243.598 27.3573 243.32 28.0933 243.32 28.968C243.32 29.832 243.603 30.568 244.168 31.176C244.744 31.784 245.448 32.088 246.28 32.088ZM252.72 33V24.728H253.952V31.272L258.864 24.728H260.064V33H258.832V26.456L253.904 33H252.72ZM262.414 33.128C262.094 33.128 261.763 33.0853 261.421 33L261.566 31.944C261.811 32.0187 262.008 32.056 262.158 32.056C262.392 32.056 262.584 32.0293 262.734 31.976C262.883 31.912 263.043 31.7573 263.214 31.512C263.395 31.256 263.534 30.8987 263.63 30.44C263.726 29.9813 263.806 29.3307 263.87 28.488C263.944 27.6453 263.982 26.6213 263.982 25.416V24.728H269.838V33H268.606V25.816H265.15V26.008C265.15 27.2667 265.102 28.3387 265.006 29.224C264.91 30.1093 264.787 30.8027 264.638 31.304C264.499 31.8053 264.302 32.1947 264.046 32.472C263.79 32.7493 263.539 32.9253 263.294 33C263.059 33.0853 262.766 33.128 262.414 33.128ZM271.859 33L274.387 29.8C273.736 29.6507 273.203 29.3573 272.787 28.92C272.381 28.4827 272.179 27.944 272.179 27.304C272.179 26.536 272.456 25.9173 273.011 25.448C273.565 24.968 274.328 24.728 275.299 24.728H279.187V33H277.955V29.992H275.667C275.571 30.12 275.24 30.5573 274.675 31.304C274.109 32.0507 273.677 32.616 273.379 33H271.859ZM275.395 28.952H277.955V25.816H275.363C274.755 25.816 274.275 25.9547 273.923 26.232C273.581 26.4987 273.411 26.872 273.411 27.352C273.411 27.8427 273.592 28.232 273.955 28.52C274.328 28.808 274.808 28.952 275.395 28.952Z" fill="black"/>
<circle cx="34" cy="34" r="20" fill="#FB0937"/>
<path d="M28.832 40.192C32.016 40.192 33.728 37.712 33.728 34.08C33.728 31.84 33.2 30.624 32.4 29.824C31.552 28.976 30.672 28.608 29.168 28.608C26.64 28.608 24.896 30.272 24.896 32.528C24.896 34.832 26.464 36.176 28.896 36.176C29.872 36.176 30.624 35.872 31.168 35.408C31.008 36.912 30.272 37.952 28.896 37.952C27.952 37.952 27.264 37.648 26.448 36.992L25.152 38.864C26.096 39.648 27.2 40.192 28.832 40.192ZM29.296 34.128C28.08 34.128 27.344 33.44 27.344 32.448C27.344 31.424 28.032 30.72 29.248 30.72C30.48 30.72 31.216 31.44 31.216 32.432C31.216 33.424 30.512 34.128 29.296 34.128ZM39.6338 40.16C42.1138 40.16 43.9538 38.944 43.9538 36.864C43.9538 35.504 43.2818 34.784 42.1458 34.192C43.0098 33.664 43.5698 32.944 43.5698 31.744C43.5698 29.984 42.0018 28.64 39.6338 28.64C37.2658 28.64 35.6978 30 35.6978 31.712C35.6978 32.944 36.2578 33.664 37.1218 34.192C35.9378 34.736 35.3138 35.536 35.3138 36.896C35.3138 38.88 37.1538 40.16 39.6338 40.16ZM39.6338 33.376C38.6578 33.376 38.0338 32.784 38.0338 32C38.0338 31.28 38.6258 30.672 39.6338 30.672C40.6418 30.672 41.2338 31.296 41.2338 31.984C41.2338 32.8 40.6098 33.376 39.6338 33.376ZM39.6338 38.128C38.4178 38.128 37.6978 37.504 37.6978 36.736C37.6978 35.84 38.5138 35.328 39.6338 35.328C40.7538 35.328 41.5698 35.84 41.5698 36.704C41.5698 37.52 40.8498 38.128 39.6338 38.128Z" fill="white"/>
<path d="M64 48H230.5L255 71" stroke="black" stroke-linecap="round" stroke-linejoin="round"/>
<path d="M66.5 34C66.5 52.5085 51.7184 67.5 33.5 67.5C15.2816 67.5 0.5 52.5085 0.5 34C0.5 15.4915 15.2816 0.5 33.5 0.5C51.7184 0.5 66.5 15.4915 66.5 34Z" stroke="black"/>
</svg>
