<svg width="285" height="73" viewBox="0 0 285 73" fill="none" xmlns="http://www.w3.org/2000/svg">
<path d="M72.16 36.064H73.168L73.392 34H80.08V36.064H81.104L81.296 32.912H80.048V25.728H74.16V27.168C74.16 29.952 73.728 31.68 73.056 32.912H72.16V36.064ZM74.368 32.912C74.944 31.84 75.344 30.016 75.344 27.968V26.816H78.816V32.912H74.368ZM86.7614 34.192C89.2574 34.192 91.0974 32.208 91.0974 29.872C91.0974 27.504 89.2734 25.552 86.7934 25.552C84.2974 25.552 82.4734 27.536 82.4734 29.872C82.4734 32.24 84.2814 34.192 86.7614 34.192ZM86.7934 33.088C85.0494 33.088 83.7374 31.648 83.7374 29.872C83.7374 28.096 84.9694 26.64 86.7614 26.64C88.5054 26.64 89.8334 28.096 89.8334 29.872C89.8334 31.648 88.5854 33.088 86.7934 33.088ZM93.3291 34H94.5611V32L96.3051 30.208L99.2491 34H100.705L97.1531 29.312L100.609 25.728H99.0891L94.5611 30.496V25.728H93.3291V34ZM103.687 36.608C104.935 36.608 105.735 35.984 106.439 34.272L109.911 25.728H108.599L105.943 32.624L102.935 25.728H101.575L105.335 33.968C104.839 35.136 104.375 35.52 103.639 35.52C103.111 35.52 102.743 35.424 102.343 35.216L101.927 36.192C102.487 36.464 102.999 36.608 103.687 36.608ZM111.86 34H113.06V27.696L116.084 31.888L119.14 27.696V34H120.388V25.728H119.204L116.116 30.08L113.028 25.728H111.86V34ZM126.758 34.192C128.326 34.192 129.334 33.568 130.166 32.64L129.398 31.952C128.726 32.656 127.926 33.12 126.79 33.12C125.334 33.12 124.054 32.112 123.878 30.368H130.438C130.454 30.176 130.454 30.048 130.454 29.936C130.454 27.504 129.046 25.552 126.598 25.552C124.31 25.552 122.63 27.472 122.63 29.872C122.63 32.448 124.486 34.192 126.758 34.192ZM123.878 29.376C124.054 27.776 125.142 26.592 126.566 26.592C128.198 26.592 129.062 27.872 129.206 29.376H123.878ZM132.61 34H133.842V30.384H138.61V34H139.842V25.728H138.61V29.296H133.842V25.728H132.61V34ZM144.595 34H145.843V26.816H148.803V25.728H141.635V26.816H144.595V34ZM153.059 34.176C154.515 34.176 155.459 33.504 156.035 32.768V34H157.251V28.944C157.251 27.888 156.963 27.088 156.387 26.512C155.795 25.92 154.883 25.6 153.715 25.6C152.499 25.6 151.619 25.888 150.707 26.304L151.075 27.312C151.843 26.96 152.611 26.72 153.587 26.72C155.139 26.72 156.035 27.488 156.035 28.96V29.216C155.299 29.008 154.563 28.864 153.507 28.864C151.411 28.864 149.971 29.792 149.971 31.568C149.971 33.296 151.507 34.176 153.059 34.176ZM153.299 33.184C152.179 33.184 151.219 32.576 151.219 31.536C151.219 30.512 152.099 29.84 153.635 29.84C154.643 29.84 155.443 30.016 156.051 30.192V30.96C156.051 32.272 154.819 33.184 153.299 33.184ZM163.441 36.064H164.449L164.673 34H171.361V36.064H172.385L172.577 32.912H171.329V25.728H165.441V27.168C165.441 29.952 165.009 31.68 164.337 32.912H163.441V36.064ZM165.649 32.912C166.225 31.84 166.625 30.016 166.625 27.968V26.816H170.097V32.912H165.649ZM173.867 34.128C175.435 34.128 176.603 33.456 176.603 27.008V26.816H180.059V34H181.291V25.728H175.435V26.416C175.435 32.624 174.603 33.056 173.611 33.056C173.467 33.056 173.179 32.992 173.019 32.944L172.875 34C173.131 34.064 173.595 34.128 173.867 34.128ZM183.312 34H184.832C185.6 33.008 186.352 32 187.12 30.992H189.408V34H190.64V25.728H186.752C184.784 25.728 183.632 26.784 183.632 28.304C183.632 29.648 184.608 30.512 185.84 30.8L183.312 34ZM186.848 29.952C185.696 29.952 184.864 29.36 184.864 28.352C184.864 27.408 185.584 26.816 186.816 26.816H189.408V29.952H186.848ZM198.189 34H199.421V26.816H204.125V34H205.357V25.728H198.189V34ZM211.886 34.192C214.382 34.192 216.222 32.208 216.222 29.872C216.222 27.504 214.398 25.552 211.918 25.552C209.422 25.552 207.598 27.536 207.598 29.872C207.598 32.24 209.406 34.192 211.886 34.192ZM211.918 33.088C210.174 33.088 208.862 31.648 208.862 29.872C208.862 28.096 210.094 26.64 211.886 26.64C213.63 26.64 214.958 28.096 214.958 29.872C214.958 31.648 213.71 33.088 211.918 33.088ZM218.054 34.128C219.622 34.128 220.79 33.456 220.79 27.008V26.816H224.246V34H225.478V25.728H219.622V26.416C219.622 32.624 218.79 33.056 217.798 33.056C217.654 33.056 217.366 32.992 217.206 32.944L217.062 34C217.318 34.064 217.782 34.128 218.054 34.128ZM229.515 36.608C230.763 36.608 231.563 35.984 232.267 34.272L235.739 25.728H234.427L231.771 32.624L228.763 25.728H227.403L231.163 33.968C230.667 35.136 230.203 35.52 229.467 35.52C228.939 35.52 228.571 35.424 228.171 35.216L227.755 36.192C228.315 36.464 228.827 36.608 229.515 36.608ZM242.937 34H244.169V25.728H242.937V29.488C242.265 29.952 241.209 30.272 240.329 30.272C239.273 30.272 238.664 29.664 238.664 28.688V25.728H237.433V28.864C237.433 30.496 238.537 31.344 240.169 31.344C241.145 31.344 242.345 30.928 242.937 30.592V34ZM250.539 34.192C252.107 34.192 253.115 33.568 253.947 32.64L253.179 31.952C252.507 32.656 251.707 33.12 250.571 33.12C249.115 33.12 247.835 32.112 247.659 30.368H254.219C254.235 30.176 254.235 30.048 254.235 29.936C254.235 27.504 252.827 25.552 250.379 25.552C248.091 25.552 246.411 27.472 246.411 29.872C246.411 32.448 248.267 34.192 250.539 34.192ZM247.659 29.376C247.835 27.776 248.923 26.592 250.347 26.592C251.979 26.592 252.843 27.872 252.987 29.376H247.659ZM256.392 34H257.624V30.384H262.392V34H263.624V25.728H262.392V29.296H257.624V25.728H256.392V34ZM266.376 34H267.56L272.488 27.456V34H273.72V25.728H272.52L267.608 32.272V25.728H266.376V34ZM275.734 34H277.254C278.022 33.008 278.774 32 279.542 30.992H281.83V34H283.062V25.728H279.174C277.206 25.728 276.054 26.784 276.054 28.304C276.054 29.648 277.03 30.512 278.262 30.8L275.734 34ZM279.27 29.952C278.118 29.952 277.286 29.36 277.286 28.352C277.286 27.408 278.006 26.816 279.238 26.816H281.83V29.952H279.27Z" fill="black"/>
<circle cx="33" cy="34" r="20" fill="#FB0937"/>
<path d="M32.976 40.192C35.472 40.192 37.008 38.64 37.008 36.528C37.008 34.416 35.52 33.616 34 33.36L36.832 30.656V28.8H29.264V30.912H33.664L30.992 33.6L31.376 35.168H32.4C33.776 35.168 34.592 35.68 34.592 36.592C34.592 37.456 33.936 37.984 33.008 37.984C31.872 37.984 31.072 37.504 30.304 36.64L28.608 38.256C29.568 39.392 30.96 40.192 32.976 40.192Z" fill="white"/>
<path d="M63.5 49H198.5L223 72" stroke="black" stroke-linecap="round" stroke-linejoin="round"/>
<path d="M66.5 34C66.5 52.5085 51.7184 67.5 33.5 67.5C15.2816 67.5 0.5 52.5085 0.5 34C0.5 15.4915 15.2816 0.5 33.5 0.5C51.7184 0.5 66.5 15.4915 66.5 34Z" stroke="black"/>
</svg>
