<svg width="43" height="43" viewBox="0 0 43 43" fill="none" xmlns="http://www.w3.org/2000/svg">
<path d="M31.0126 26.8784H28.254L26.6922 24.799C28.3839 23.7035 29.6495 22.0884 30.2125 20.2084C32.1804 19.9302 33.704 18.3491 33.704 16.4748C33.704 15.4892 33.2964 14.5923 32.6254 13.9195V7.98759C32.6254 4.78585 29.7909 2.18107 26.3068 2.18107H25.5334C23.8662 0.773328 21.709 0 19.4391 0C17.5426 0 15.7281 0.535401 14.192 1.54834C13.8844 1.75116 13.814 2.14471 14.0347 2.42732C14.2553 2.70992 14.6834 2.77459 14.9912 2.57185C16.2929 1.71345 17.831 1.25977 19.4399 1.25977C21.4107 1.25977 23.282 1.94793 24.7091 3.19762C24.8884 3.3545 25.1227 3.44084 25.369 3.44084H26.3067C29.0349 3.44084 31.2545 5.48048 31.2545 7.98759V13.0166C30.9577 12.8967 30.6423 12.808 30.3126 12.755C29.9948 11.4595 29.3403 10.2477 28.4005 9.22619C28.0771 8.87488 27.5076 8.81265 27.1038 9.08451C23.3543 11.6101 19.6861 11.6099 15.8898 9.08417C15.487 8.81609 14.9196 8.87958 14.5981 9.22862C13.6583 10.2488 13.0042 11.4598 12.6871 12.7551C12.3777 12.8049 12.0808 12.8861 11.8001 12.9951V8.27968C11.8001 6.87412 12.2504 5.51811 13.1022 4.35812C13.314 4.06971 13.2313 3.67826 12.9175 3.48367C12.6037 3.28908 12.1777 3.36509 11.966 3.6534C10.9607 5.02235 10.4294 6.62208 10.4294 8.27968V13.8648C9.72557 14.5432 9.29622 15.4625 9.29622 16.4748C9.29622 18.3492 10.8197 19.9302 12.7877 20.2084C13.3506 22.0884 14.6163 23.7034 16.3079 24.7989L14.746 26.8783H11.9874C8.13457 26.8783 5.00009 29.7588 5.00009 33.2994V34.6733C5.00009 35.0211 5.30698 35.3032 5.68551 35.3032C6.06405 35.3032 6.37093 35.0211 6.37093 34.6733V33.2994C6.37093 30.4534 8.89045 28.138 11.9874 28.138H14.6186L16.7923 33.8777L18.2296 41.7402H12.1768V37.0619C12.1768 36.714 11.8699 36.432 11.4914 36.432C11.1129 36.432 10.806 36.714 10.806 37.0619V41.7402H6.37084V37.3984C6.37084 37.0505 6.06396 36.7685 5.68542 36.7685C5.30689 36.7685 5 37.0505 5 37.3984V41.9832C5 42.5439 5.49634 43 6.10645 43H26.4689C26.8475 43 27.1544 42.718 27.1544 42.3701C27.1544 42.0223 26.8475 41.7402 26.4689 41.7402H24.7703L26.2076 33.8779L28.3814 28.1381H31.0126C34.1096 28.1381 36.6292 30.4535 36.6292 33.2995V41.7402H32.194V37.0619C32.194 36.714 31.8871 36.432 31.5086 36.432C31.1301 36.432 30.8232 36.714 30.8232 37.0619V41.7402H29.4344C29.0559 41.7402 28.749 42.0223 28.749 42.3701C28.749 42.718 29.0559 43 29.4344 43H36.8935C37.5037 43 38 42.5439 38 41.9832V33.2995C37.9999 29.7588 34.8654 26.8784 31.0126 26.8784ZM30.4887 18.8526C30.5194 18.5747 30.5351 18.2929 30.5351 18.0077V14.5863C30.5351 14.4251 30.5282 14.2638 30.5181 14.1028C31.5982 14.4561 32.3329 15.4223 32.3329 16.4748C32.333 17.5659 31.5585 18.5078 30.4887 18.8526ZM10.667 16.4748C10.667 15.4215 11.4006 14.4565 12.4818 14.1028C12.4716 14.2638 12.4648 14.4251 12.4648 14.5863V18.0077C12.4648 18.2929 12.4806 18.5748 12.5112 18.8527C11.4415 18.5079 10.667 17.5659 10.667 16.4748ZM13.8356 18.0077V14.5863C13.8356 14.2025 13.8696 13.8178 13.9363 13.4425C13.9371 13.4388 13.9383 13.4353 13.9389 13.4317C14.1413 12.2978 14.6468 11.2266 15.4074 10.3131C17.4406 11.5975 19.4803 12.2396 21.5153 12.2395C23.5502 12.2394 25.5807 11.5967 27.5919 10.3121C28.3517 11.226 28.8572 12.2969 29.0607 13.4299C29.0613 13.4336 29.0624 13.4371 29.0631 13.4407L29.0639 13.4437C29.1305 13.8186 29.1644 14.203 29.1644 14.5864V18.0078C29.1644 20.5943 27.6384 22.8582 25.3712 24.0829C25.3679 24.0848 25.3645 24.0863 25.3613 24.0881C24.2265 24.699 22.9075 25.0511 21.5001 25.0511C20.0923 25.0511 18.773 24.699 17.6381 24.0877C17.636 24.0866 17.6338 24.0855 17.6318 24.0844C15.3629 22.8599 13.8356 20.5952 13.8356 18.0077ZM21.5 26.3107C22.2338 26.3107 22.9472 26.2293 23.6307 26.0769L21.5 28.6024L19.3693 26.0769C20.0528 26.2293 20.7662 26.3107 21.5 26.3107ZM24.8178 33.8759L23.7446 39.747L22.2548 35.5787L24.041 33.0997L24.8178 33.8759ZM18.959 33.0998L20.7452 35.5788L19.2554 39.7471L18.1821 33.876L18.959 33.0998ZM21.5 37.504L23.014 41.7402H19.9859L21.5 37.504ZM21.5 34.3446L19.9149 32.1447L21.5 30.5609L23.0851 32.1447L21.5 34.3446ZM17.3062 25.6874L20.6035 29.5957L17.7152 32.4816L15.8674 27.6029L17.3062 25.6874ZM25.2849 32.4817L24.5431 31.7405C24.4987 31.6741 24.4401 31.6147 24.3683 31.5659L22.3965 29.5957L25.6938 25.6874L27.1326 27.603L25.2849 32.4817Z" fill="#FB0937"/>
</svg>
