<svg width="43" height="43" viewBox="0 0 43 43" fill="none" xmlns="http://www.w3.org/2000/svg">
<path d="M28.7187 27.6489C27.6999 27.6489 26.8711 26.923 26.8711 26.0308C26.8711 25.1385 27.6999 24.4126 28.7187 24.4126C29.7376 24.4126 30.5664 25.1385 30.5664 26.0308C30.5664 26.5001 30.9425 26.8806 31.4062 26.8806C31.87 26.8806 32.2461 26.5001 32.2461 26.0308C32.2461 24.4736 31.0994 23.1642 29.5586 22.8088V22.3668C29.5586 21.8976 29.1825 21.517 28.7187 21.517C28.255 21.517 27.8789 21.8976 27.8789 22.3668V22.8088C26.3381 23.1642 25.1914 24.4736 25.1914 26.0308C25.1914 27.8602 26.7738 29.3485 28.7187 29.3485C29.7376 29.3485 30.5664 30.0744 30.5664 30.9667C30.5664 31.859 29.7376 32.5849 28.7187 32.5849C27.6999 32.5849 26.8711 31.859 26.8711 30.9667C26.8711 30.4975 26.495 30.1169 26.0312 30.1169C25.5675 30.1169 25.1914 30.4975 25.1914 30.9667C25.1914 32.524 26.3381 33.8334 27.8789 34.1888V34.5559C27.8789 35.0251 28.255 35.4057 28.7187 35.4057C29.1825 35.4057 29.5586 35.0251 29.5586 34.5559V34.1888C31.0994 33.8334 32.2461 32.524 32.2461 30.9667C32.2461 29.1373 30.6637 27.6489 28.7187 27.6489Z" fill="#FB0937"/>
<path d="M37.9174 22.5942C36.8203 20.8644 35.2746 19.4802 33.4476 18.5915C33.0294 18.3881 32.5276 18.5662 32.3267 18.9892C32.1257 19.4123 32.3017 19.9199 32.7197 20.1233C35.9037 21.672 37.9609 24.981 37.9609 28.5534C37.9609 30.082 37.5885 31.598 36.8841 32.9376C36.6662 33.3519 36.8215 33.8665 37.231 34.087C37.3567 34.1546 37.4917 34.1867 37.6248 34.1867C37.9253 34.1867 38.2159 34.023 38.3669 33.7359C39.2001 32.1515 39.6406 30.3594 39.6406 28.5534C39.6406 26.4323 39.0447 24.3716 37.9174 22.5942Z" fill="#FB0937"/>
<path d="M30.0389 17.5061L29.9824 17.506C29.5186 17.506 29.1425 17.8864 29.1425 18.3558C29.1425 18.8251 29.5186 19.2056 29.9824 19.2056L30.031 19.2057C30.0323 19.2057 30.0336 19.2057 30.035 19.2057C30.497 19.2057 30.8726 18.8278 30.8748 18.3599C30.8769 17.8905 30.5026 17.5083 30.0389 17.5061Z" fill="#FB0937"/>
<path d="M24.7255 36.9835C21.5417 35.4347 19.4845 32.1257 19.4845 28.5534C19.4845 27.0248 19.8569 25.5088 20.5613 24.1692C20.7791 23.7549 20.6238 23.2403 20.2143 23.0198C19.805 22.7994 19.2962 22.9565 19.0784 23.3709C18.2452 24.9553 17.8048 26.7474 17.8048 28.5534C17.8048 30.6745 18.4007 32.7351 19.528 34.5126C20.6251 36.2424 22.1707 37.6265 23.9978 38.5153C24.1151 38.5725 24.2391 38.5994 24.3611 38.5994C24.6739 38.5994 24.9741 38.4219 25.1187 38.1176C25.3195 37.6946 25.1436 37.1869 24.7255 36.9835Z" fill="#FB0937"/>
<path d="M27.463 37.9012L27.4144 37.901C26.9484 37.9002 26.5729 38.2774 26.5708 38.7468C26.5686 39.2162 26.943 39.5984 27.4067 39.6006L27.463 39.6008C27.9268 39.6008 28.3029 39.2203 28.3029 38.751C28.3029 38.2817 27.9268 37.9012 27.463 37.9012Z" fill="#FB0937"/>
<path d="M32.5362 14.6308C32.434 14.3844 32.3088 14.1522 32.1631 13.9367H34.3495C36.4797 13.9367 38.2128 12.1831 38.2128 10.0276C38.2128 7.87221 36.4797 6.11857 34.3495 6.11857H27.6241C28.0517 5.48954 28.3027 4.72855 28.3027 3.90908C28.3027 1.75365 26.5696 0 24.4394 0H3.86327C1.7331 0 0 1.75365 0 3.90908C0 6.06452 1.7331 7.81817 3.86327 7.81817H10.5887C10.1612 8.44719 9.91014 9.20819 9.91014 10.0276C9.91014 10.8471 10.1611 11.6081 10.5887 12.2371H8.39842C6.26825 12.2371 4.53515 13.9908 4.53515 16.1462C4.53515 17.3841 5.10742 18.4888 5.99773 19.2055C5.10742 19.9222 4.53515 21.0269 4.53515 22.2648C4.53515 23.5027 5.10742 24.6073 5.99773 25.3241C5.10742 26.0408 4.53515 27.1454 4.53515 28.3833C4.53515 29.6212 5.10742 30.7259 5.99773 31.4426C5.10742 32.1593 4.53515 33.264 4.53515 34.5019C4.53515 36.6573 6.26825 38.411 8.39842 38.411H18.296C20.9033 41.2329 24.6126 43 28.7227 43C36.5952 43 43 36.5193 43 28.5534C43 21.9235 38.5631 16.3232 32.5362 14.6308ZM34.3495 7.81817C35.5536 7.81817 36.5331 8.80937 36.5331 10.0276C36.5331 11.2459 35.5536 12.2371 34.3495 12.2371H13.7734C12.5693 12.2371 11.5898 11.2459 11.5898 10.0276C11.5898 8.80937 12.5693 7.81817 13.7734 7.81817H34.3495ZM3.86327 6.11857C2.65919 6.11857 1.67968 5.12736 1.67968 3.90908C1.67968 2.69081 2.65919 1.6996 3.86327 1.6996H24.4394C25.6435 1.6996 26.623 2.69081 26.623 3.90908C26.623 5.12736 25.6435 6.11857 24.4394 6.11857H3.86327ZM8.39842 13.9367H28.9746C29.3128 13.9367 29.6368 14.0163 29.9274 14.1587C29.5301 14.125 29.1285 14.1068 28.7227 14.1068C24.78 14.1068 21.2057 15.7324 18.6195 18.3557H8.39842C7.19442 18.3557 6.21483 17.3645 6.21483 16.1462C6.21483 14.9279 7.19442 13.9367 8.39842 13.9367ZM8.39842 20.0553H17.1844C16.231 21.377 15.4939 22.8677 15.0258 24.4743H8.39842C7.19434 24.4743 6.21483 23.4831 6.21483 22.2648C6.21483 21.0465 7.19434 20.0553 8.39842 20.0553ZM8.39842 26.1739H14.6401C14.5127 26.9483 14.4454 27.7429 14.4454 28.5534C14.4454 29.2456 14.4948 29.9263 14.5883 30.5928H8.39842C7.19434 30.5928 6.21483 29.6017 6.21483 28.3833C6.21483 27.165 7.19434 26.1739 8.39842 26.1739ZM8.39842 36.7114C7.19434 36.7114 6.21483 35.7203 6.21483 34.5019C6.21483 33.2836 7.19434 32.2924 8.39842 32.2924H14.9312C15.355 33.8912 16.0434 35.3811 16.9463 36.7114H8.39842ZM28.7227 41.3004C21.7764 41.3004 16.1251 35.5821 16.1251 28.5534C16.1251 21.5247 21.7764 15.8064 28.7227 15.8064C35.669 15.8064 41.3203 21.5247 41.3203 28.5534C41.3203 35.5821 35.669 41.3004 28.7227 41.3004Z" fill="#FB0937"/>
</svg>
