<svg width="43" height="43" viewBox="0 0 43 43" fill="none" xmlns="http://www.w3.org/2000/svg">
<path d="M35.352 12.6757C35.1959 12.5195 34.9793 12.4297 34.7585 12.4297C34.5377 12.4297 34.3211 12.5195 34.1649 12.6757C34.0087 12.832 33.9189 13.0487 33.9189 13.2695C33.9189 13.4904 34.0087 13.7071 34.1649 13.8632C34.321 14.0194 34.5377 14.1094 34.7585 14.1094C34.9793 14.1094 35.1959 14.0195 35.352 13.8632C35.5081 13.7071 35.5981 13.4904 35.5981 13.2695C35.5981 13.0487 35.5082 12.8319 35.352 12.6757Z" fill="#FB0937"/>
<path d="M34.7585 10.792C35.2221 10.792 35.5981 10.4158 35.5981 9.95211V2.51949C35.5981 1.1302 34.4681 4.68294e-09 33.0793 4.68294e-09H2.51877C1.12992 -8.40063e-05 0 1.1302 0 2.51949V40.4804C0 41.8697 1.12992 43 2.51877 43H33.0794C34.4682 43 35.5981 41.8697 35.5981 40.4804V36.7083C35.5981 36.2446 35.2221 35.8685 34.7586 35.8685C34.295 35.8685 33.919 36.2446 33.919 36.7083V40.4804C33.919 40.9435 33.5423 41.3203 33.0794 41.3203H2.51877C2.05585 41.3203 1.67918 40.9435 1.67918 40.4804V2.51949C1.67918 2.05642 2.05585 1.67963 2.51877 1.67963H33.0794C33.5423 1.67963 33.919 2.05642 33.919 2.51949V9.95211C33.9189 10.4158 34.2949 10.792 34.7585 10.792Z" fill="#FB0937"/>
<path d="M42.2622 33.7786L37.9312 29.4463C38.6769 28.1145 39.1031 26.5806 39.1031 24.9486C39.1031 19.8576 34.9626 15.7157 29.873 15.7157C29.8222 15.7157 29.7717 15.7168 29.7211 15.7176V11.0965C29.7211 10.6328 29.3451 10.2566 28.8815 10.2566H23.9746V5.72157C23.9746 5.25782 23.5986 4.88171 23.1351 4.88171H17.3887C16.9251 4.88171 16.5491 5.25782 16.5491 5.72157V10.7606H11.6422C11.1786 10.7606 10.8026 11.1367 10.8026 11.6005V16.1356H6.71664C6.25305 16.1356 5.87705 16.5118 5.87705 16.9755V21.5107C5.87705 21.9744 6.25305 22.3505 6.71664 22.3505H21.0155C20.7734 23.1751 20.6429 24.0469 20.6429 24.9487C20.6429 30.0398 24.7834 34.1817 29.8729 34.1817C31.5043 34.1817 33.0379 33.7556 34.3691 33.0095L38.6717 37.3134C39.1786 37.8205 39.8374 38.076 40.4935 38.0759C41.1057 38.0759 41.7156 37.8534 42.1967 37.4051C42.7022 36.9342 42.9872 36.2949 42.9996 35.6053C43.0118 34.9151 42.7499 34.2666 42.2622 33.7786ZM10.8026 20.6708H7.55623V17.8154H10.8026L10.8026 20.6708ZM16.549 20.6708H12.4817V12.4403H16.549V20.6708ZM18.2281 20.6708V6.56142H22.2954V15.2852C22.2954 15.7489 22.6714 16.1251 23.135 16.1251C23.5986 16.1251 23.9746 15.7489 23.9746 15.2852V11.9364H28.0419V15.8985C25.2835 16.4561 22.9673 18.2479 21.6956 20.6708H18.2281ZM29.8729 32.502C25.7094 32.502 22.322 29.1135 22.322 24.9486C22.322 20.7838 25.7093 17.3953 29.8729 17.3953C34.0365 17.3953 37.4239 20.7837 37.4239 24.9486C37.4239 29.1136 34.0365 32.502 29.8729 32.502ZM41.0522 36.1759C40.7258 36.48 40.1907 36.4574 39.8591 36.1255L35.7757 32.0409C36.2063 31.6815 36.6039 31.284 36.9631 30.8531L41.0749 34.9662C41.2375 35.1288 41.3249 35.3451 41.3207 35.5751C41.3165 35.8052 41.2213 36.0184 41.0522 36.1759Z" fill="#FB0937"/>
<path d="M32.0587 20.6543C31.655 20.4264 31.1428 20.5687 30.9148 20.9728L26.4005 28.9718C26.1726 29.3758 26.315 29.8881 26.7189 30.1161C26.8493 30.1898 26.991 30.2248 27.1309 30.2248C27.4238 30.2248 27.7084 30.0711 27.8627 29.7977L32.377 21.7987C32.605 21.3946 32.4625 20.8824 32.0587 20.6543Z" fill="#FB0937"/>
<path d="M32.8065 25.6657C31.4177 25.6657 30.2877 26.796 30.2877 28.1853C30.2877 29.5745 31.4177 30.7047 32.8065 30.7047C34.1954 30.7047 35.3252 29.5745 35.3252 28.1853C35.3253 26.7959 34.1954 25.6657 32.8065 25.6657ZM32.8065 29.025C32.3436 29.025 31.9669 28.6482 31.9669 28.1852C31.9669 27.7221 32.3436 27.3453 32.8065 27.3453C33.2694 27.3453 33.6461 27.7221 33.6461 28.1852C33.6461 28.6482 33.2695 29.025 32.8065 29.025Z" fill="#FB0937"/>
<path d="M26.9394 19.1926C25.5505 19.1926 24.4206 20.3228 24.4206 21.7121C24.4206 23.1014 25.5505 24.2317 26.9394 24.2317C28.3282 24.2317 29.4581 23.1014 29.4581 21.7121C29.4581 20.3228 28.3281 19.1926 26.9394 19.1926ZM26.9394 22.5519C26.4764 22.5519 26.0998 22.1751 26.0998 21.712C26.0998 21.249 26.4764 20.8722 26.9394 20.8722C27.4023 20.8722 27.779 21.249 27.779 21.712C27.779 22.1751 27.4023 22.5519 26.9394 22.5519Z" fill="#FB0937"/>
<path d="M28.6185 36.7851H5.37331C4.90972 36.7851 4.53372 37.1612 4.53372 37.625C4.53372 38.0887 4.90972 38.4648 5.37331 38.4648H28.6185C29.0821 38.4648 29.4581 38.0887 29.4581 37.625C29.4581 37.1612 29.0821 36.7851 28.6185 36.7851Z" fill="#FB0937"/>
<path d="M17.799 32.082H12.5933C12.1297 32.082 11.7537 32.4581 11.7537 32.9219C11.7537 33.3856 12.1297 33.7617 12.5933 33.7617H17.799C18.2626 33.7617 18.6386 33.3856 18.6386 32.9219C18.6386 32.4581 18.2626 32.082 17.799 32.082Z" fill="#FB0937"/>
<path d="M21.4713 32.3281C21.3152 32.1719 21.0985 32.082 20.8777 32.082C20.6569 32.082 20.4403 32.1718 20.2841 32.3281C20.1272 32.4843 20.0381 32.701 20.0381 32.9219C20.0381 33.1427 20.1272 33.3594 20.2841 33.5156C20.4403 33.6718 20.6562 33.7617 20.8777 33.7617C21.0985 33.7617 21.3151 33.6718 21.4713 33.5156C21.6274 33.3595 21.7173 33.1427 21.7173 32.9219C21.7173 32.7009 21.6275 32.4843 21.4713 32.3281Z" fill="#FB0937"/>
<path d="M17.799 27.3788H12.5933C12.1297 27.3788 11.7537 27.7549 11.7537 28.2187C11.7537 28.6824 12.1297 29.0585 12.5933 29.0585H17.799C18.2626 29.0585 18.6386 28.6824 18.6386 28.2187C18.6386 27.7549 18.2626 27.3788 17.799 27.3788Z" fill="#FB0937"/>
<path d="M7.22038 29.5196C6.66482 29.5196 6.2129 29.1441 6.2129 28.6825C6.2129 28.221 6.66482 27.8455 7.22038 27.8455C7.77593 27.8455 8.22785 28.221 8.22785 28.6825C8.22785 29.1463 8.60385 29.5224 9.06744 29.5224C9.53104 29.5224 9.90703 29.1463 9.90703 28.6825C9.90703 27.5691 9.13093 26.623 8.05913 26.2922C8.05048 25.8359 7.67859 25.4683 7.22038 25.4683C6.76216 25.4683 6.39019 25.8359 6.38163 26.2922C5.30982 26.623 4.53372 27.5691 4.53372 28.6825C4.53372 30.0702 5.73889 31.1993 7.22038 31.1993C7.77593 31.1993 8.22785 31.5748 8.22785 32.0363C8.22785 32.4978 7.77593 32.8733 7.22038 32.8733C6.66482 32.8733 6.2129 32.4978 6.2129 32.0363C6.2129 31.5726 5.8369 31.1965 5.37331 31.1965C4.90972 31.1965 4.53372 31.5726 4.53372 32.0363C4.53372 33.1494 5.3094 34.0953 6.38079 34.4264V34.4749C6.38079 34.9386 6.75678 35.3148 7.22038 35.3148C7.68397 35.3148 8.05997 34.9386 8.05997 34.4749V34.4264C9.13135 34.0953 9.90703 33.1494 9.90703 32.0363C9.90703 30.6486 8.70177 29.5196 7.22038 29.5196Z" fill="#FB0937"/>
</svg>
