<svg width="46" height="46" viewBox="0 0 46 46" fill="none" xmlns="http://www.w3.org/2000/svg">
<g clip-path="url(#clip0)">
<path d="M42.0816 10.1488C41.8038 9.73744 41.2454 9.62917 40.8342 9.90688C40.423 10.1845 40.3147 10.743 40.5924 11.1542C46.2533 19.5395 45.1608 30.8267 37.9947 37.9928C33.99 41.9976 28.6654 44.203 23.0016 44.203C17.3379 44.203 12.0134 41.9977 8.00852 37.9929C4.00378 33.9882 1.79836 28.6636 1.79836 22.9999C1.79836 17.3362 4.00387 12.0115 8.00852 8.00685C15.3041 0.711269 26.72 -0.292567 35.1531 5.61994C35.5592 5.90484 36.1196 5.80637 36.4045 5.40009C36.6893 4.99381 36.5909 4.43354 36.1846 4.14864C31.8115 1.0826 26.4551 -0.363364 21.1026 0.0777737C15.6871 0.523853 10.5856 2.88848 6.73794 6.73617C2.39385 11.0803 0.00146484 16.8562 0.00146484 22.9999C0.00146484 29.1436 2.39385 34.9194 6.73794 39.2636C11.0821 43.6077 16.858 46.0001 23.0016 46.0001C29.1451 46.0001 34.9211 43.6077 39.2652 39.2636C47.0385 31.4902 48.223 19.2457 42.0816 10.1488Z" fill="#FB0937"/>
<path d="M23.0017 4.26709C12.6725 4.26709 4.26904 12.6705 4.26904 22.9997C4.26904 33.3289 12.6725 41.7324 23.0017 41.7324C33.3309 41.7324 41.7343 33.3289 41.7343 22.9997C41.7343 12.6705 33.3309 4.26709 23.0017 4.26709ZM23.0017 39.9355C13.6633 39.9355 6.06594 32.3382 6.06594 22.9997C6.06594 13.6613 13.6633 6.06399 23.0017 6.06399C32.3401 6.06399 39.9374 13.6613 39.9374 22.9997C39.9374 32.3382 32.3401 39.9355 23.0017 39.9355Z" fill="#FB0937"/>
<path d="M28.7193 27.4472L25.7673 24.4952C26.0088 24.0503 26.1461 23.541 26.1461 23.0001C26.1461 21.5784 25.1973 20.3746 23.9 19.987V13.4766C23.9 12.9804 23.4977 12.5781 23.0015 12.5781C22.5053 12.5781 22.1031 12.9804 22.1031 13.4766V19.987C20.8057 20.3746 19.8569 21.5783 19.8569 23.0001C19.8569 24.734 21.2676 26.1447 23.0015 26.1447C23.5424 26.1447 24.0517 26.0074 24.4966 25.7659L27.4486 28.7178C27.6241 28.8933 27.854 28.981 28.0839 28.981C28.3139 28.981 28.5438 28.8932 28.7192 28.7178C29.0702 28.3668 29.0702 27.798 28.7193 27.4472ZM21.6539 23.0001C21.6539 22.257 22.2585 21.6524 23.0016 21.6524C23.7447 21.6524 24.3493 22.257 24.3493 23.0001C24.3493 23.7432 23.7448 24.3478 23.0016 24.3478C22.2585 24.3478 21.6539 23.7432 21.6539 23.0001Z" fill="#FB0937"/>
<path d="M23.0015 10.6135C23.4977 10.6135 23.8999 10.2112 23.8999 9.71502V8.80518C23.8999 8.30897 23.4977 7.90674 23.0015 7.90674C22.5053 7.90674 22.103 8.30897 22.103 8.80518V9.71502C22.103 10.2112 22.5053 10.6135 23.0015 10.6135Z" fill="#FB0937"/>
<path d="M16.6825 10.258C16.4344 9.82818 15.8848 9.68101 15.4552 9.92916C15.0255 10.1773 14.8783 10.7267 15.1264 11.1564L15.5814 11.9444C15.7478 12.2327 16.0497 12.3938 16.3602 12.3938C16.5126 12.3938 16.6672 12.3549 16.8086 12.2733C17.2384 12.0251 17.3856 11.4757 17.1375 11.046L16.6825 10.258Z" fill="#FB0937"/>
<path d="M11.9459 15.5794L11.1579 15.1244C10.7282 14.8764 10.1787 15.0235 9.93061 15.4532C9.68246 15.883 9.82971 16.4324 10.2594 16.6805L11.0475 17.1355C11.189 17.2171 11.3434 17.256 11.4959 17.256C11.8063 17.256 12.1083 17.0949 12.2747 16.8066C12.5229 16.377 12.3756 15.8275 11.9459 15.5794Z" fill="#FB0937"/>
<path d="M10.6155 23C10.6155 22.5038 10.2133 22.1016 9.71707 22.1016H8.80713C8.31092 22.1016 7.90869 22.5038 7.90869 23C7.90869 23.4962 8.31092 23.8984 8.80713 23.8984H9.71707C10.2132 23.8984 10.6155 23.4961 10.6155 23Z" fill="#FB0937"/>
<path d="M11.0475 28.8638L10.2594 29.3187C9.82971 29.5668 9.68246 30.1163 9.93061 30.546C10.097 30.8342 10.399 30.9953 10.7095 30.9953C10.8618 30.9953 11.0164 30.9565 11.1579 30.8748L11.9459 30.4199C12.3756 30.1718 12.5229 29.6223 12.2747 29.1926C12.0267 28.7628 11.4771 28.6155 11.0475 28.8638Z" fill="#FB0937"/>
<path d="M16.8086 33.7265C16.3791 33.4784 15.8295 33.6256 15.5814 34.0553L15.1264 34.8433C14.8782 35.273 15.0256 35.8225 15.4552 36.0706C15.5967 36.1522 15.7512 36.1911 15.9036 36.1911C16.2141 36.1911 16.5161 36.03 16.6825 35.7418L17.1374 34.9537C17.3856 34.524 17.2382 33.9745 16.8086 33.7265Z" fill="#FB0937"/>
<path d="M23.0015 35.3862C22.5053 35.3862 22.103 35.7885 22.103 36.2847V37.1945C22.103 37.6907 22.5053 38.093 23.0015 38.093C23.4977 38.093 23.8999 37.6907 23.8999 37.1945V36.2847C23.8998 35.7885 23.4977 35.3862 23.0015 35.3862Z" fill="#FB0937"/>
<path d="M30.4217 34.0553C30.1738 33.6257 29.6246 33.4784 29.1945 33.7264C28.7648 33.9744 28.6175 34.5239 28.8656 34.9536L29.3205 35.7417C29.4869 36.0299 29.7889 36.1911 30.0995 36.1911C30.2518 36.1911 30.4063 36.1523 30.5478 36.0706C30.9774 35.8225 31.1248 35.273 30.8766 34.8433L30.4217 34.0553Z" fill="#FB0937"/>
<path d="M35.7438 29.3187L34.9557 28.8638C34.5258 28.6155 33.9765 28.7629 33.7285 29.1926C33.4803 29.6223 33.6276 30.1718 34.0573 30.4198L34.8453 30.8748C34.9868 30.9566 35.1413 30.9953 35.2936 30.9953C35.6041 30.9953 35.9062 30.8342 36.0726 30.546C36.3206 30.1163 36.1735 29.5668 35.7438 29.3187Z" fill="#FB0937"/>
<path d="M35.3877 23C35.3877 23.4962 35.79 23.8984 36.2861 23.8984H37.1961C37.6922 23.8984 38.0945 23.4962 38.0945 23C38.0945 22.5038 37.6922 22.1016 37.1961 22.1016H36.2861C35.7899 22.1016 35.3877 22.5038 35.3877 23Z" fill="#FB0937"/>
<path d="M34.0573 15.5793C33.6276 15.8274 33.4803 16.3768 33.7285 16.8066C33.8949 17.0949 34.1968 17.256 34.5074 17.256C34.6598 17.256 34.8143 17.2171 34.9557 17.1355L35.7437 16.6805C36.1735 16.4324 36.3207 15.883 36.0726 15.4532C35.8244 15.0235 35.2751 14.8764 34.8453 15.1244L34.0573 15.5793Z" fill="#FB0937"/>
<path d="M30.5478 9.92869C30.118 9.68046 29.5686 9.8278 29.3205 10.2575L28.8657 11.0455C28.6175 11.4753 28.7648 12.0247 29.1945 12.2728C29.336 12.3546 29.4904 12.3933 29.6428 12.3933C29.9533 12.3933 30.2554 12.2322 30.4218 11.944L30.8767 11.156C31.1248 10.7262 30.9776 10.1768 30.5478 9.92869Z" fill="#FB0937"/>
<path d="M38.7293 8.43948C39.2251 8.43948 39.627 8.03756 39.627 7.54176C39.627 7.04597 39.2251 6.64404 38.7293 6.64404C38.2335 6.64404 37.8315 7.04597 37.8315 7.54176C37.8315 8.03756 38.2335 8.43948 38.7293 8.43948Z" fill="#FB0937"/>
</g>
<defs>
<clipPath id="clip0">
<rect width="46" height="46" fill="white"/>
</clipPath>
</defs>
</svg>
