<svg width="51" height="51" viewBox="0 0 51 51" fill="none" xmlns="http://www.w3.org/2000/svg">
<path d="M50.98 24.8251C50.5106 14.6554 41.8859 6.79168 31.7162 7.26119C22.2037 7.70031 14.5913 15.3126 14.1523 24.8251H11.542L9.07704 20.8497C8.92203 20.5997 8.64876 20.4477 8.35456 20.4477H0.855073C0.385672 20.4476 0.00509273 20.8282 0.00498648 21.2976C0.00498648 21.4559 0.0491855 21.6111 0.13259 21.7456L2.58648 25.7014L0.13259 29.6581C-0.114755 30.057 0.00806765 30.5809 0.407027 30.8284C0.541537 30.9118 0.696764 30.956 0.855073 30.956H8.35445C8.64865 30.956 8.92192 30.8039 9.07693 30.5539L11.575 26.525H14.1522C14.6216 36.6947 23.2463 44.5584 33.416 44.0889C43.5857 43.6194 51.4494 34.9949 50.98 24.8251ZM7.88101 29.256H2.37994L4.0408 26.5786H9.53932L7.88101 29.256ZM4.04335 24.8251L2.37994 22.1476H7.88101L9.54187 24.8251H4.04335ZM32.6089 42.4103C23.6883 42.4219 16.3268 35.4341 15.8742 26.525H19.3464C19.8158 33.8331 26.1207 39.377 33.4288 38.9075C40.7368 38.4379 46.2807 32.1331 45.8112 24.8251C45.3417 17.5171 39.0368 11.9732 31.7288 12.4427C25.0753 12.8701 19.7737 18.1715 19.3464 24.8251H15.8742C16.3294 15.9347 23.6632 8.95562 32.5653 8.94149C41.8075 8.92949 49.3095 16.412 49.3215 25.6541C49.3335 34.8963 41.851 42.3983 32.6089 42.4103ZM32.5644 24.8251H31.6941C32.1635 24.342 32.9357 24.3308 33.4188 24.8002C33.9019 25.2696 33.913 26.0418 33.4436 26.525C32.9742 27.0083 32.202 27.0193 31.7188 26.5498C31.7104 26.5416 31.7021 26.5333 31.6941 26.525H32.5644C33.0338 26.525 33.4144 26.1445 33.4144 25.6751C33.4144 25.2057 33.0338 24.8251 32.5644 24.8251ZM33.4324 28.4675C34.9746 27.9981 35.8442 26.3673 35.3747 24.8252C34.9053 23.283 33.2745 22.4134 31.7324 22.8829C30.8017 23.1661 30.0734 23.8946 29.7901 24.8252H26.2372C26.7066 21.3274 29.9227 18.8723 33.4206 19.3417C36.9185 19.8112 39.3734 23.0273 38.904 26.5251C38.4346 30.023 35.2185 32.478 31.7206 32.0086C28.866 31.6255 26.6203 29.3799 26.2372 26.5251H29.7901C30.2595 28.0672 31.8903 28.9369 33.4324 28.4675ZM33.4156 33.7204C37.8589 33.251 41.0804 29.2685 40.611 24.8251C40.1416 20.3818 36.159 17.1603 31.7156 17.6297C27.9203 18.0307 24.9212 21.0296 24.5202 24.8251H21.0464C21.5158 18.4581 27.0578 13.6772 33.4247 14.1467C39.7916 14.6162 44.5727 20.1582 44.1031 26.525C43.6336 32.8919 38.0917 37.673 31.7248 37.2036C26.0108 36.7823 21.4676 32.239 21.0464 26.525H24.5202C24.9896 30.9684 28.9722 34.1898 33.4156 33.7204Z" fill="#FB0937"/>
<path d="M15.2996 0.000488281H8.49976V1.70045H15.2996V0.000488281Z" fill="#FB0937"/>
<path d="M22.0994 5.95068H15.2996V7.65065H22.0994V5.95068Z" fill="#FB0937"/>
<path d="M6.79981 0.000488281H5.09985V1.70045H6.79981V0.000488281Z" fill="#FB0937"/>
<path d="M10.1997 16.1504H3.3999V17.8504H10.1997V16.1504Z" fill="#FB0937"/>
<path d="M1.69996 16.1504H0V17.8504H1.69996V16.1504Z" fill="#FB0937"/>
<path d="M11.8997 34.8501H6.7998V36.5501H11.8997V34.8501Z" fill="#FB0937"/>
<path d="M5.09986 34.8501H3.3999V36.5501H5.09986V34.8501Z" fill="#FB0937"/>
<path d="M18.6995 42.4995H16.9995V44.1995H18.6995V42.4995Z" fill="#FB0937"/>
<path d="M10.1997 49.2993H3.3999V50.9993H10.1997V49.2993Z" fill="#FB0937"/>
<path d="M1.69996 49.2993H0V50.9993H1.69996V49.2993Z" fill="#FB0937"/>
</svg>
