<svg width="44" height="44" viewBox="0 0 44 44" fill="none" xmlns="http://www.w3.org/2000/svg">
<g clip-path="url(#clip0)">
<path d="M7.31086 39.0955C7.1511 38.9356 6.92938 38.8438 6.70337 38.8438C6.47735 38.8438 6.25563 38.9356 6.09579 39.0955C5.93595 39.2555 5.84399 39.4771 5.84399 39.7031C5.84399 39.9291 5.93586 40.1509 6.09579 40.3106C6.25563 40.4705 6.47735 40.5625 6.70337 40.5625C6.92938 40.5625 7.1511 40.4705 7.31086 40.3106C7.47071 40.1509 7.56274 39.9291 7.56274 39.7031C7.56274 39.4771 7.47079 39.2554 7.31086 39.0955Z" fill="#FB0937"/>
<path d="M40.3498 15.7215C40.1899 15.5616 39.9691 15.4697 39.7422 15.4697C39.5162 15.4697 39.2945 15.5616 39.1346 15.7215C38.9749 15.8814 38.8828 16.1031 38.8828 16.3291C38.8828 16.5551 38.9748 16.7768 39.1346 16.9366C39.2945 17.0964 39.5162 17.1885 39.7422 17.1885C39.9691 17.1885 40.1899 17.0965 40.3498 16.9366C40.5104 16.7768 40.6023 16.5551 40.6023 16.3291C40.6023 16.1031 40.5104 15.8814 40.3498 15.7215Z" fill="#FB0937"/>
<path d="M43.7479 0.251711C43.5867 0.0905781 43.368 0 43.1401 0L22 0.00111719C21.5254 0.00111719 21.1407 0.385945 21.1407 0.860492V3.31805L12.9947 5.50077C12.5363 5.62366 12.2642 6.09486 12.3871 6.55325L16.6089 22.3092L12.9567 25.9615C12.4918 25.2827 11.7113 24.8364 10.8285 24.8364H2.57877C1.15719 24.8364 0.000732422 25.9929 0.000732422 27.4144V41.4219C0.000732422 42.8435 1.15719 44 2.57877 44H10.8286C12.0363 44 13.0522 43.165 13.3307 42.0423L14.3525 42.9334C15.1413 43.6213 16.1519 44.0001 17.1985 44.0001H43.1402C43.6148 44.0001 43.9996 43.6153 43.9996 43.1407V0.859375C43.9994 0.631469 43.909 0.412844 43.7479 0.251711ZM11.6878 41.422C11.6878 41.8957 11.3023 42.2813 10.8284 42.2813H2.57868C2.10483 42.2813 1.71931 41.8958 1.71931 41.422V27.4145C1.71931 26.9406 2.10483 26.5551 2.57868 26.5551H5.84422V36.4547C5.84422 36.9292 6.22905 37.3141 6.7036 37.3141C7.17814 37.3141 7.56297 36.9292 7.56297 36.4547V26.5551H10.8285C11.3024 26.5551 11.6879 26.9406 11.6879 27.4145V41.422H11.6878ZM14.2696 6.93851L21.1407 5.09738V8.2818L20.5647 8.43614C20.3445 8.49518 20.1569 8.63912 20.0429 8.83652C19.9289 9.03392 19.898 9.26845 19.957 9.48862C20.2873 10.721 19.5533 11.9923 18.3209 12.3226C18.1005 12.3817 17.9125 12.5259 17.7986 12.7237C17.6848 12.9215 17.6541 13.1564 17.7136 13.3768L21.0634 25.7808H19.3386L18.4498 22.3034C18.4215 22.1928 18.372 22.0907 18.3058 22.0021L14.2696 6.93851ZM21.1407 12.2228V19.4743L19.5732 13.6705C20.228 13.3324 20.7638 12.8266 21.1407 12.2228ZM33.4868 42.2812H17.1984C16.5672 42.2812 15.9576 42.0528 15.4819 41.638L13.4065 39.8281V27.9423L17.1584 24.1905L17.8389 26.8528C17.9361 27.2332 18.2788 27.4993 18.6714 27.4993L35.5671 27.5003C36.2305 27.5003 36.7702 28.04 36.7702 28.7035C36.7702 29.3669 36.2305 29.9066 35.5671 29.9066H26.9097C26.4352 29.9066 26.0504 30.2914 26.0504 30.766C26.0504 31.2405 26.4352 31.6253 26.9097 31.6253H38.2569C38.9204 31.6253 39.46 32.165 39.46 32.8285C39.46 33.4919 38.9204 34.0316 38.2569 34.0316H26.9097C26.4352 34.0316 26.0504 34.4164 26.0504 34.891C26.0504 35.3655 26.4352 35.7503 26.9097 35.7503H36.4181C37.0816 35.7503 37.6212 36.29 37.6212 36.9535C37.6212 37.6169 37.0816 38.1566 36.4181 38.1566H26.9097C26.4352 38.1566 26.0504 38.5414 26.0504 39.016C26.0504 39.4905 26.4352 39.8753 26.9097 39.8753H33.4868C34.1502 39.8753 34.6899 40.415 34.6899 41.0785C34.6898 41.7416 34.1501 42.2812 33.4868 42.2812ZM42.2808 42.2812H42.2808H36.1484C36.315 41.914 36.4086 41.507 36.4086 41.0781C36.4086 40.6493 36.315 40.2422 36.1484 39.875H36.4181C38.0292 39.875 39.3399 38.5643 39.3399 36.9532C39.3399 36.4833 39.2277 36.0393 39.0298 35.6455C40.2669 35.3057 41.1786 34.1718 41.1786 32.8283C41.1786 32.1765 40.9639 31.574 40.6019 31.0876V20.1959C40.6019 19.7214 40.2171 19.3365 39.7425 19.3365C39.268 19.3365 38.8831 19.7214 38.8831 20.1959V29.9749C38.6812 29.9307 38.4718 29.9066 38.2567 29.9066H38.2286C38.3952 29.5394 38.4888 29.1323 38.4888 28.7035C38.4888 27.0923 37.1781 25.7817 35.567 25.7817H34.1855C35.6524 25.1526 36.6826 23.6946 36.6826 22C36.6826 19.7322 34.8377 17.8872 32.5699 17.8872C30.3022 17.8872 28.4572 19.7322 28.4572 22C28.4572 23.6946 29.4875 25.1526 30.9543 25.7817H26.2567V9.44135C27.7919 9.1068 29.0033 7.89551 29.3377 6.36023H35.802C36.1365 7.89551 37.3479 9.1068 38.8831 9.44135V12.1131C38.8831 12.5877 39.2679 12.9725 39.7424 12.9725C40.217 12.9725 40.6018 12.5877 40.6018 12.1131V8.6741C40.6018 8.19955 40.217 7.81473 39.7424 7.81473C38.4665 7.81473 37.4286 6.77669 37.4286 5.50086C37.4286 5.02631 37.0438 4.64148 36.5693 4.64148H28.5706C28.096 4.64148 27.7112 5.02631 27.7112 5.50086C27.7112 6.77677 26.6732 7.81473 25.3974 7.81473C24.9229 7.81473 24.538 8.19955 24.538 8.6741V25.7816H22.8595V1.7197L42.2808 1.71875V42.2812ZM32.5701 24.394C31.25 24.394 30.1761 23.3201 30.1761 22.0001C30.1761 20.6801 31.2501 19.606 32.5701 19.606C33.8901 19.606 34.9641 20.68 34.9641 22C34.9641 23.32 33.8902 24.394 32.5701 24.394Z" fill="#FB0937"/>
</g>
<defs>
<clipPath id="clip0">
<rect width="44" height="44" fill="white"/>
</clipPath>
</defs>
</svg>
