<svg width="54" height="54" viewBox="0 0 54 54" fill="none" xmlns="http://www.w3.org/2000/svg">
<path d="M28.7065 26.3011C29.0544 26.5372 29.5692 26.436 29.8031 26.0912L39.2893 12.1157C39.5343 11.7549 39.4404 11.264 39.0795 11.0191C38.7189 10.7744 38.2278 10.8681 37.9829 11.229L28.4967 25.2046C28.2518 25.5652 28.3458 26.0563 28.7065 26.3011Z" fill="#FB0937"/>
<path d="M39.031 26.437C40.6739 26.437 42.0107 24.7941 42.0107 22.7745C41.8423 17.9138 36.2191 17.9149 36.0513 22.7745C36.0513 24.7941 37.388 26.437 39.031 26.437ZM39.031 20.691C39.7903 20.691 40.4317 21.6451 40.4317 22.7745C40.4317 23.9039 39.7903 24.858 39.031 24.858C38.2717 24.858 37.6302 23.9039 37.6302 22.7745C37.6302 21.6451 38.2718 20.691 39.031 20.691Z" fill="#FB0937"/>
<path d="M31.6147 14.5453C31.6147 12.5257 30.278 10.8828 28.635 10.8828C24.6834 11.0781 24.6849 18.0134 28.635 18.2077C30.278 18.2077 31.6147 16.5647 31.6147 14.5453ZM27.2343 14.5453C27.2343 13.4159 27.8758 12.4618 28.6351 12.4618C29.3944 12.4618 30.0358 13.4159 30.0358 14.5453C30.0358 15.6747 29.3944 16.6287 28.6351 16.6287C27.8758 16.6287 27.2343 15.6746 27.2343 14.5453Z" fill="#FB0937"/>
<path d="M28.2271 36.4161C47.6044 42.1921 61.0189 17.9328 45.9304 4.53063C45.5999 4.24609 45.1015 4.28315 44.8169 4.61369C44.5325 4.94412 44.5695 5.44256 44.9 5.7271C58.9064 18.2043 46.058 40.6246 28.2271 34.752V29.387C28.2271 28.7104 27.8176 27.7576 25.8672 27.0613C23.6419 26.267 21.0747 26.1966 18.7521 26.5249C11.3074 11.9923 26.5438 -3.74876 41.2696 3.33279C41.6609 3.52396 42.134 3.36174 42.3254 2.96993C42.5168 2.57823 42.3545 2.10548 41.9628 1.914C26.0788 -5.74158 9.48421 10.9955 17.1497 26.8499C16.9137 26.9146 16.6868 26.9848 16.4724 27.0613C14.522 27.7577 14.1125 28.7105 14.1125 29.387V34.6422C12.5069 33.8823 10.7754 33.639 8.64417 33.61C7.59897 33.6456 7.59866 35.1526 8.64333 35.189C10.2274 35.1899 11.7048 35.4066 12.8036 35.7994C13.885 36.1859 14.1126 36.5761 14.1126 36.637C14.1126 36.6979 13.8846 37.0888 12.8009 37.4756C10.2875 38.3729 6.98011 38.3724 4.4679 37.4756C3.38417 37.0887 3.15616 36.6978 3.15616 36.637C3.15616 36.5654 3.43322 36.1155 4.75002 35.7051C5.73742 35.3594 5.28804 33.9211 4.28021 34.1976C2.04611 34.894 1.57715 35.9085 1.57715 36.637V50.9101C1.57715 51.5868 1.98664 52.5395 3.93703 53.2358C6.79168 54.2548 10.478 54.2545 13.3317 53.2358C14.0411 52.9825 14.546 52.6952 14.9021 52.3997C15.2582 52.6952 15.7631 52.9825 16.4725 53.2358C19.3272 54.2548 23.0136 54.2545 25.8673 53.2358C26.5767 52.9825 27.0816 52.6952 27.4377 52.3997C27.7938 52.6952 28.2987 52.9825 29.0081 53.2358C31.8627 54.2548 35.5491 54.2545 38.4028 53.2358C40.3532 52.5394 40.7626 51.5867 40.7626 50.9101V43.7735C40.7626 43.0968 40.3532 42.1441 38.4028 41.4478C35.5481 40.4288 31.8618 40.4291 29.0081 41.4478C28.7138 41.5529 28.4552 41.6638 28.2272 41.7788C28.2263 40.7496 28.2287 37.6951 28.2263 36.6214C28.2276 36.5929 28.2269 36.4471 28.2271 36.4161ZM39.1835 47.3419C39.1835 47.4028 38.9555 47.7937 37.8718 48.1804C35.3584 49.0777 32.051 49.0773 29.5388 48.1804C28.4551 47.7936 28.2271 47.4027 28.2271 47.3419V45.7684C28.4551 45.8833 28.7137 45.9943 29.008 46.0994C31.8626 47.1184 35.549 47.1181 38.4027 46.0994C38.6969 45.9943 38.9555 45.8834 39.1835 45.7684V47.3419ZM26.6481 32.9554C26.6481 33.0163 26.4201 33.4072 25.3363 33.7939C22.823 34.6912 19.5155 34.6909 17.0033 33.7939C15.9195 33.4071 15.6915 33.0162 15.6915 32.9554V31.3819C15.9195 31.4968 16.1782 31.6078 16.4724 31.7129C19.3271 32.7319 23.0135 32.7316 25.8672 31.7129C26.1614 31.6078 26.4201 31.4969 26.6481 31.3819V32.9554ZM16.4724 35.281C19.598 36.37 23.6263 36.3394 26.6481 34.9502V36.5804C26.6481 36.6413 26.4201 37.0322 25.3363 37.419C22.8228 38.3163 19.5157 38.3158 17.0033 37.419C15.9195 37.0322 15.6915 36.6413 15.6915 36.5804V34.9502C15.9195 35.065 16.1781 35.176 16.4724 35.281ZM14.1125 43.7735C14.1125 43.8344 13.8845 44.2253 12.8008 44.6122C10.2872 45.5095 6.98021 45.509 4.46779 44.6122C3.38406 44.2253 3.15606 43.8344 3.15606 43.7735V42.2001C3.38406 42.3149 3.64271 42.426 3.93693 42.531C6.79157 43.55 10.4779 43.5497 13.3316 42.531C13.6259 42.426 13.8845 42.315 14.1125 42.2001V43.7735ZM3.15606 45.7683C3.38406 45.8832 3.64271 45.9942 3.93693 46.0993C6.79157 47.1183 10.4779 47.118 13.3316 46.0993C13.6259 45.9942 13.8845 45.8833 14.1125 45.7683V47.3417C14.1125 47.4027 13.8845 47.7936 12.8008 48.1803C10.2874 49.0776 6.98 49.0772 4.46779 48.1803C3.38406 47.7935 3.15606 47.4026 3.15606 47.3417V45.7683ZM15.6915 45.7683C15.9195 45.8832 16.1782 45.9942 16.4724 46.0993C19.3271 47.1183 23.0135 47.118 25.8672 46.0993C26.1614 45.9942 26.4201 45.8833 26.6481 45.7683V47.3417C26.6481 47.4027 26.4201 47.7936 25.3363 48.1803C22.823 49.0776 19.5155 49.0773 17.0033 48.1803C15.9195 47.7935 15.6915 47.4026 15.6915 47.3417V45.7683ZM25.3363 44.6122C22.8228 45.5095 19.5157 45.5089 17.0033 44.6122C15.9195 44.2253 15.6915 43.8344 15.6915 43.7735V42.2001C15.9195 42.3149 16.1782 42.426 16.4724 42.531C19.3271 43.55 23.0135 43.5497 25.8672 42.531C26.1614 42.426 26.4201 42.315 26.6481 42.2001V43.7735C26.6481 43.8344 26.4201 44.2253 25.3363 44.6122ZM26.6481 40.2052C26.6481 40.2662 26.4201 40.6569 25.3363 41.0438C22.8228 41.9411 19.5157 41.9406 17.0033 41.0438C15.9195 40.6569 15.6915 40.2661 15.6915 40.2052V38.5751C15.9195 38.6899 16.1782 38.801 16.4724 38.906C19.3271 39.925 23.0135 39.9247 25.8672 38.906C26.1614 38.801 26.4201 38.69 26.6481 38.5751V40.2052ZM17.0033 28.5485C19.5158 27.6516 22.8245 27.6518 25.3363 28.5485C26.4201 28.9353 26.6481 29.3262 26.6481 29.387C26.6481 29.4479 26.4201 29.8388 25.3363 30.2257C22.8228 31.123 19.5157 31.1225 17.0033 30.2257C15.9195 29.8388 15.6915 29.448 15.6915 29.387C15.6915 29.3261 15.9195 28.9353 17.0033 28.5485ZM3.93693 38.9627C7.06253 40.0516 11.0907 40.021 14.1125 38.6318V40.2054C14.1125 40.2663 13.8845 40.6572 12.8008 41.0439C10.2872 41.9412 6.98021 41.9408 4.46779 41.0439C3.38406 40.6571 3.15606 40.2662 3.15606 40.2054V38.6318C3.38396 38.7467 3.6426 38.8576 3.93693 38.9627ZM12.8008 51.7488C10.2872 52.6461 6.98021 52.6456 4.46779 51.7488C3.38406 51.3619 3.15606 50.9711 3.15606 50.9102V49.3367C6.43672 50.8124 10.8327 50.8121 14.1125 49.3367V50.9102C14.1125 50.9711 13.8845 51.3619 12.8008 51.7488ZM25.3363 51.7488C22.8228 52.6461 19.5157 52.6455 17.0033 51.7488C15.9195 51.3619 15.6915 50.9711 15.6915 50.9102V49.3367C18.9722 50.8124 23.3682 50.8121 26.6481 49.3367V50.9102C26.6481 50.9711 26.4201 51.3618 25.3363 51.7488ZM37.8718 51.7488C35.3582 52.6461 32.0512 52.6456 29.5388 51.7488C28.4551 51.3619 28.2271 50.9711 28.2271 50.9102V49.3367C31.5077 50.8124 35.9037 50.8121 39.1835 49.3367V50.9102C39.1835 50.9711 38.9555 51.3619 37.8718 51.7488ZM29.5388 42.9349C32.0524 42.0376 35.3594 42.0381 37.8718 42.9349C38.9555 43.3218 39.1835 43.7127 39.1835 43.7735C39.1835 43.8343 38.9555 44.2253 37.8718 44.6122C35.3582 45.5095 32.0512 45.509 29.5388 44.6122C28.4551 44.2253 28.2271 43.8344 28.2271 43.7735C28.2271 43.7125 28.4551 43.3218 29.5388 42.9349Z" fill="#FB0937"/>
</svg>
