<svg width="52" height="52" viewBox="0 0 52 52" fill="none" xmlns="http://www.w3.org/2000/svg">
<path d="M23.0297 13.6943L17.4601 8.12456C16.4294 7.0939 14.7523 7.0939 13.7216 8.12456L11.5176 10.3286C10.487 11.3592 10.487 13.0363 11.5176 14.067L17.0872 19.6366C17.6027 20.152 18.2795 20.4096 18.9565 20.4096C19.6333 20.4096 20.3104 20.1518 20.8257 19.6366L23.0297 17.4327C24.0603 16.402 24.0603 14.7249 23.0297 13.6943ZM21.9831 16.3861L19.7791 18.59C19.5593 18.8097 19.2672 18.9308 18.9565 18.9308C18.6457 18.9308 18.3536 18.8097 18.1338 18.59L12.5642 13.0204C12.1106 12.5668 12.1106 11.8288 12.5642 11.3752L14.7682 9.17127C14.995 8.94448 15.2929 8.83103 15.5909 8.83103C15.8888 8.83103 16.1867 8.94448 16.4135 9.17116L21.9831 14.7409C22.2028 14.9607 22.3238 15.2528 22.3238 15.5634C22.3238 15.8742 22.2028 16.1663 21.9831 16.3861Z" fill="#FB0937"/>
<path d="M16.2807 20.4433L10.7109 14.8736C9.68028 13.8429 8.00328 13.8429 6.97262 14.8736L4.7686 17.0776C3.73794 18.1083 3.73794 19.7854 4.7686 20.816L10.3382 26.3857C10.8535 26.901 11.5305 27.1587 12.2074 27.1587C12.8843 27.1587 13.5613 26.901 14.0766 26.3857L16.2807 24.1817C17.3113 23.151 17.3113 21.4739 16.2807 20.4433ZM15.234 23.1351L13.03 25.339C12.5765 25.7926 11.8384 25.7925 11.3848 25.339L5.81521 19.7693C5.59553 19.5495 5.47446 19.2574 5.47446 18.9468C5.47446 18.6361 5.59542 18.3439 5.81521 18.1242L8.01922 15.9202C8.24601 15.6934 8.5439 15.58 8.84178 15.58C9.13967 15.58 9.43755 15.6934 9.66434 15.9202L15.234 21.4899C15.6876 21.9435 15.6876 22.6815 15.234 23.1351Z" fill="#FB0937"/>
<path d="M50.4814 17.1811L43.4721 10.1718C42.4191 9.1188 40.9625 8.56935 39.4767 8.6635C39.132 8.68543 38.7937 8.74292 38.4654 8.83087C37.2646 7.91477 35.8125 7.07759 34.2228 6.396C31.8591 5.38251 29.4553 4.82432 27.4538 4.82432C27.4535 4.82432 27.4532 4.82432 27.453 4.82432C27.1766 4.82432 26.9117 4.83589 26.6576 4.85732C26.0687 4.17878 25.2303 3.72277 24.2841 3.63298L17.5226 2.99121C15.7883 2.82657 14.0877 3.43859 12.8561 4.67025L5.78134 11.745C5.49229 12.034 5.49229 12.5026 5.78134 12.7916C6.07028 13.0806 6.53889 13.0806 6.82794 12.7916L13.9027 5.71685C14.8211 4.79842 16.0896 4.34179 17.3828 4.46468L24.1442 5.10646C25.1515 5.20213 25.952 6.00265 26.0477 7.00995L26.4101 10.8281C26.4033 10.822 26.3964 10.8159 26.3895 10.8097C26.328 10.7548 26.2673 10.6997 26.208 10.6444C26.1558 10.5958 26.1044 10.5471 26.054 10.4982C26.0303 10.4752 26.0068 10.4522 25.9834 10.4291C25.9123 10.3588 25.8424 10.2884 25.7751 10.2177C25.7162 10.1558 25.6598 10.0941 25.6047 10.0326C25.5915 10.0178 25.5784 10.0032 25.5654 9.98859C25.5132 9.92948 25.4623 9.87057 25.4135 9.81197C25.4026 9.79887 25.3923 9.78587 25.3815 9.77277C25.3431 9.72594 25.306 9.67943 25.2699 9.63302C25.2549 9.61372 25.2397 9.59432 25.225 9.57512C25.1858 9.52353 25.1479 9.47214 25.1116 9.42115C25.0936 9.39587 25.0764 9.37088 25.0592 9.34579C25.0459 9.3264 25.0331 9.3072 25.0202 9.28801C25.4428 8.40776 25.2923 7.31911 24.5637 6.5905C23.6415 5.6683 22.1409 5.6682 21.2185 6.5905C20.2962 7.51279 20.2962 9.01338 21.2185 9.93567C21.6796 10.3968 22.2854 10.6273 22.891 10.6273C23.2614 10.6273 23.6315 10.5401 23.9688 10.3676C24.1808 10.6558 24.4252 10.9464 24.7027 11.238C25.2402 11.8029 25.8822 12.3532 26.6043 12.875L26.6894 13.7714C26.8122 15.0644 26.3557 16.3329 25.4372 17.2515L13.4873 29.2013C13.1815 29.5071 12.775 29.6755 12.3425 29.6755C11.91 29.6755 11.5035 29.5071 11.1977 29.2013L1.95272 19.9564C1.64692 19.6506 1.47853 19.244 1.47853 18.8116C1.47853 18.3791 1.64692 17.9725 1.95272 17.6667L3.40924 16.2102C3.69828 15.9213 3.69828 15.4527 3.40924 15.1636C3.12029 14.8747 2.65168 14.8747 2.36263 15.1636L0.90622 16.6199C-0.302073 17.8282 -0.302073 19.7944 0.90622 21.0028L10.1512 30.2477C10.7365 30.833 11.5148 31.1555 12.3426 31.1555C13.1704 31.1555 13.9487 30.8332 14.534 30.2477L26.4839 18.2979C27.6535 17.1282 28.263 15.5352 28.1805 13.8929C28.9102 14.3153 29.6905 14.7078 30.5083 15.0584C30.9682 15.2556 31.4295 15.435 31.8892 15.597L27.7296 20.9736C26.3073 22.8119 26.3021 25.3511 27.6222 27.1878L24.2066 30.6034C23.8222 30.9878 23.6617 31.5551 23.7875 32.0839C23.7952 32.1164 23.7854 32.1513 23.7617 32.1751L21.2969 34.6399C21.1986 34.7382 21.1159 34.8506 21.051 34.974L19.6632 37.6174L17.1726 38.9049C16.9091 39.0412 16.6929 39.2634 16.564 39.5307L15.5872 41.5561L12.6219 43.4135C12.3106 43.6084 12.1055 43.9292 12.0589 44.2934L11.6282 47.659C11.5799 48.0368 11.7066 48.408 11.976 48.6772C12.2076 48.9089 12.5146 49.035 12.8364 49.035C12.8887 49.035 12.9414 49.0317 12.9943 49.025L16.36 48.5943C16.724 48.5476 17.0447 48.3426 17.2398 48.0314L19.0972 45.0661L21.1225 44.0892C21.3898 43.9604 21.6121 43.744 21.7484 43.4805L23.0358 40.9901L25.6794 39.6022C25.8028 39.5374 25.9153 39.4546 26.0134 39.3564L28.4781 36.8917C28.5022 36.8676 28.5364 36.8579 28.5693 36.8659C29.0983 36.9916 29.6656 36.8311 30.0498 36.4467L33.4651 33.0314C34.3643 33.6777 35.4313 34.007 36.5027 34.0069C37.6198 34.0069 38.7411 33.6498 39.6795 32.9238L43.6381 29.8612C43.9613 29.611 44.0207 29.1463 43.7706 28.823C43.5206 28.4998 43.0557 28.4403 42.7324 28.6905L38.7738 31.7531C37.3207 32.8773 35.2554 32.7639 33.9327 31.5003C33.9316 31.4993 33.9307 31.4981 33.9297 31.4971L33.8999 31.4689C33.8903 31.4599 33.8805 31.451 33.8712 31.4415L29.2119 26.7822C29.2026 26.773 29.1938 26.7634 29.1849 26.754L29.1557 26.7232C29.1549 26.7224 29.1541 26.7217 29.1533 26.7209C27.8896 25.3983 27.776 23.3327 28.9003 21.8795L33.3984 16.0653C34.7708 16.434 36.0945 16.6303 37.2773 16.6303C37.2775 16.6303 37.2779 16.6303 37.2781 16.6303C37.6298 16.6303 37.9638 16.6126 38.2792 16.5781L44.1867 22.4856C44.6149 22.9137 45.1772 23.1278 45.7396 23.1278C46.302 23.1278 46.8643 22.9137 47.2925 22.4856C48.1488 21.6293 48.1488 20.2362 47.2925 19.3799L41.2735 13.3609C40.8587 12.9461 40.3072 12.7177 39.7206 12.7177C39.134 12.7177 38.5825 12.9461 38.1677 13.3609C37.7529 13.7757 37.5244 14.3272 37.5244 14.9138C37.5244 14.9919 37.5291 15.0693 37.5371 15.146C37.4521 15.1485 37.366 15.1502 37.2779 15.1502C37.2776 15.1502 37.2775 15.1502 37.2772 15.1502C36.3919 15.1502 35.412 15.0255 34.386 14.7887L36.875 11.5713C37.5261 10.7297 38.5085 10.2083 39.5705 10.1408C40.6326 10.073 41.673 10.4661 42.4254 11.2185L49.4347 18.2278C50.187 18.9803 50.5799 20.0208 50.5123 21.0827C50.4449 22.1446 49.9235 23.1272 49.0818 23.7782L46.6903 25.6284C46.3671 25.8785 46.3077 26.3433 46.5578 26.6665C46.8078 26.9897 47.2726 27.049 47.596 26.7991L49.9875 24.9489C51.1653 24.0377 51.8949 22.6627 51.9895 21.1767C52.0841 19.6903 51.5344 18.2341 50.4814 17.1811ZM22.8911 9.14815C22.6547 9.14815 22.4324 9.05604 22.2651 8.88886C22.0979 8.72159 22.0058 8.49927 22.0058 8.26283C22.0058 8.02639 22.0979 7.80407 22.2651 7.6369C22.4324 7.46973 22.6547 7.37761 22.8911 7.37761C22.9279 7.37761 22.9641 7.38065 23.0001 7.38502C22.9168 7.91396 22.9971 8.48444 23.2344 9.07919C23.1271 9.12429 23.011 9.14815 22.8911 9.14815ZM28.6199 28.2833L32.3698 32.0332L29.0031 35.3999C28.9794 35.4236 28.9443 35.4334 28.9119 35.4257C28.3831 35.3 27.8158 35.4605 27.4314 35.8449L24.9773 38.2989L22.3196 39.6943C22.0681 39.8262 21.8661 40.0295 21.7354 40.2821L20.4489 42.7709L18.4278 43.7457C18.1934 43.8587 17.9965 44.035 17.8583 44.2557L16.0504 47.1419L13.1389 47.5145L13.5115 44.6031L16.3975 42.7952C16.6181 42.6571 16.7945 42.4602 16.9076 42.2257L17.8824 40.2045L20.3712 38.9179C20.6235 38.7875 20.8268 38.5856 20.9589 38.334L22.3544 35.6759L24.8082 33.222C25.1926 32.8377 25.3533 32.2704 25.2275 31.7415C25.2195 31.7084 25.2293 31.6743 25.2533 31.6503L28.6199 28.2833ZM41.146 15.3265L46.2458 20.4263C46.525 20.7055 46.525 21.1597 46.2458 21.4388C46.1105 21.5741 45.9307 21.6485 45.7395 21.6485C45.5483 21.6485 45.3685 21.5741 45.2332 21.4388L39.9571 16.1627C40.4475 15.9516 40.8475 15.6716 41.146 15.3265ZM39.2143 14.4074C39.3496 14.2721 39.5293 14.1977 39.7206 14.1977C39.8472 14.1977 39.9685 14.231 40.0755 14.2923C39.8671 14.5693 39.5003 14.7877 39.0056 14.9346C39.0054 14.9276 39.0046 14.9207 39.0046 14.9136C39.0046 14.7223 39.079 14.5426 39.2143 14.4074ZM35.7044 10.6654L32.8469 14.3589C32.266 14.1699 31.6784 13.9497 31.0915 13.6981C29.9714 13.2178 28.93 12.6584 28.0128 12.051L27.5211 6.86989C27.5027 6.67652 27.4682 6.48792 27.4206 6.3046C27.4315 6.3046 27.442 6.30419 27.453 6.30419C27.4533 6.30419 27.4534 6.30419 27.4537 6.30419C29.2591 6.30419 31.456 6.81982 33.6394 7.75613C34.8398 8.27085 35.9503 8.87637 36.914 9.5344C36.4576 9.84112 36.048 10.2213 35.7044 10.6654Z" fill="#FB0937"/>
</svg>
