<svg width="48" height="48" viewBox="0 0 48 48" fill="none" xmlns="http://www.w3.org/2000/svg">
<g clip-path="url(#clip0)">
<path d="M20.2512 32.4375C20.769 32.4375 21.1887 32.0178 21.1887 31.5C21.1887 30.9822 20.769 30.5625 20.2512 30.5625C19.7335 30.5625 19.3137 30.9822 19.3137 31.5C19.3137 32.0178 19.7335 32.4375 20.2512 32.4375Z" fill="#FB0937"/>
<path d="M3.75122 12.75V16.5C3.75122 17.0178 4.17094 17.4375 4.68872 17.4375H31.7825C32.3002 17.4375 32.72 17.0178 32.72 16.5V12.75C32.72 12.2322 32.3002 11.8125 31.7825 11.8125H4.68872C4.17094 11.8125 3.75122 12.2322 3.75122 12.75ZM13.6887 13.6875H30.845V15.5625H13.6887V13.6875ZM5.62622 13.6875H11.8137V15.5625H5.62622V13.6875Z" fill="#FB0937"/>
<path d="M4.68872 21.1875H31.7825C32.3002 21.1875 32.72 20.7678 32.72 20.25C32.72 19.7322 32.3002 19.3125 31.7825 19.3125H4.68872C4.17094 19.3125 3.75122 19.7322 3.75122 20.25C3.75122 20.7678 4.17094 21.1875 4.68872 21.1875Z" fill="#FB0937"/>
<path d="M4.68872 24.9375H31.7825C32.3002 24.9375 32.72 24.5178 32.72 24C32.72 23.4822 32.3002 23.0625 31.7825 23.0625H4.68872C4.17094 23.0625 3.75122 23.4822 3.75122 24C3.75122 24.5178 4.17094 24.9375 4.68872 24.9375Z" fill="#FB0937"/>
<path d="M4.68872 28.6875H20.2512C20.769 28.6875 21.1887 28.2678 21.1887 27.75C21.1887 27.2322 20.769 26.8125 20.2512 26.8125H4.68872C4.17094 26.8125 3.75122 27.2322 3.75122 27.75C3.75122 28.2678 4.17094 28.6875 4.68872 28.6875Z" fill="#FB0937"/>
<path d="M4.68872 32.4375H16.5012C17.019 32.4375 17.4387 32.0178 17.4387 31.5C17.4387 30.9822 17.019 30.5625 16.5012 30.5625H4.68872C4.17094 30.5625 3.75122 30.9822 3.75122 31.5C3.75122 32.0178 4.17094 32.4375 4.68872 32.4375Z" fill="#FB0937"/>
<path d="M12.7512 39.9375H17.533C17.9686 42.0745 19.8624 43.6875 22.1262 43.6875C24.7109 43.6875 26.8137 41.5847 26.8137 39C26.8137 36.4153 24.7109 34.3125 22.1262 34.3125C19.8625 34.3125 17.9686 35.9255 17.533 38.0625H12.7512C12.2334 38.0625 11.8137 38.4822 11.8137 39C11.8137 39.5178 12.2334 39.9375 12.7512 39.9375ZM22.1262 38.0625H19.475C19.862 36.9713 20.904 36.1875 22.1262 36.1875C23.677 36.1875 24.9387 37.4492 24.9387 39C24.9387 40.5508 23.677 41.8125 22.1262 41.8125C20.9041 41.8125 19.862 41.0287 19.475 39.9375H22.1262C22.6439 39.9375 23.0637 39.5178 23.0637 39C23.0637 38.4822 22.644 38.0625 22.1262 38.0625Z" fill="#FB0937"/>
<path d="M31.7825 7.5C32.3002 7.5 32.72 7.08028 32.72 6.5625C32.72 6.04472 32.3002 5.625 31.7825 5.625H29.9075C29.3898 5.625 28.97 6.04472 28.97 6.5625C28.97 7.08028 29.3898 7.5 29.9075 7.5H31.7825Z" fill="#FB0937"/>
<path d="M26.1575 7.5C26.6752 7.5 27.095 7.08028 27.095 6.5625C27.095 6.04472 26.6752 5.625 26.1575 5.625H24.2825C23.7648 5.625 23.345 6.04472 23.345 6.5625C23.345 7.08028 23.7648 7.5 24.2825 7.5H26.1575Z" fill="#FB0937"/>
<path d="M20.5325 7.5C21.0503 7.5 21.47 7.08028 21.47 6.5625C21.47 6.04472 21.0503 5.625 20.5325 5.625H18.6575C18.1397 5.625 17.72 6.04472 17.72 6.5625C17.72 7.08028 18.1397 7.5 18.6575 7.5H20.5325Z" fill="#FB0937"/>
<path d="M18.3762 48C18.894 48 19.3137 47.5803 19.3137 47.0625C19.3137 46.5447 18.894 46.125 18.3762 46.125C17.8585 46.125 17.4387 46.5447 17.4387 47.0625C17.4387 47.5803 17.8585 48 18.3762 48Z" fill="#FB0937"/>
<path d="M0.938965 48H14.1577C14.6755 48 15.0952 47.5803 15.0952 47.0625C15.0952 46.5447 14.6755 46.125 14.1577 46.125H1.87646V9.375H8.43896C8.95675 9.375 9.37646 8.95528 9.37646 8.4375V1.875H34.5952V28.3736C34.17 28.8768 33.7728 29.3185 33.4292 29.671L31.4417 27.6835C29.6103 25.8509 26.6443 25.8501 24.8122 27.6833L23.4866 29.009C23.1205 29.3751 23.1205 29.9687 23.4866 30.3348L34.5951 41.4433V46.125H22.5951C22.0773 46.125 21.6576 46.5447 21.6576 47.0625C21.6576 47.5803 22.0773 48 22.5951 48H35.5326C36.0503 48 36.4701 47.5803 36.4701 47.0625V43.3183L36.7447 43.5929C37.1108 43.9587 37.7045 43.959 38.0706 43.5929L39.3962 42.2673C41.2279 40.4356 41.2283 37.47 39.3962 35.638L37.409 33.6507C39.1874 31.9179 43.0991 29.0397 45.1544 28.1446C48.0392 26.8888 49.0802 22.9664 46.6188 20.505C44.176 18.0609 40.271 19.054 38.9917 21.9472C38.5119 23.0315 37.5179 24.556 36.4702 25.9847V0.9375C36.4702 0.419719 36.0504 0 35.5327 0H8.43896C8.18331 0 7.94303 0.107812 7.77606 0.274594L0.276059 7.77459C0.106465 7.94381 0.00146484 8.18306 0.00146484 8.4375V47.0625C0.00146484 47.5803 0.421184 48 0.938965 48ZM38.0703 36.9638C39.1694 38.0628 39.1696 39.8423 38.0703 40.9415L37.4077 41.6042L25.4754 29.6719L26.1383 29.009C27.2372 27.9095 29.0161 27.9089 30.1157 29.0092L38.0703 36.9638ZM36.2675 29.2972C37.8922 27.3377 39.8949 24.5396 40.7064 22.7057C41.4351 21.0578 43.751 20.2882 45.2929 21.8307C46.8355 23.3733 46.0518 25.7091 44.4059 26.4255C42.0731 27.4416 38.0129 30.438 36.0831 32.3248L34.7551 30.9968C35.1996 30.5421 35.7189 29.959 36.2675 29.2972ZM7.50146 3.20081V7.5H3.20228L7.50146 3.20081Z" fill="#FB0937"/>
</g>
<defs>
<clipPath id="clip0">
<rect width="48" height="48" fill="white"/>
</clipPath>
</defs>
</svg>
