<svg width="14" height="9" viewBox="0 0 14 9" fill="none" xmlns="http://www.w3.org/2000/svg">
<g clip-path="url(#clip0)">
<path d="M1.79127 -7.05719e-05L10.2113 -7.05719e-05C10.5437 -0.000551878 10.8694 0.0931148 11.1508 0.270088C11.4322 0.447062 11.6577 0.700105 11.8013 0.999929C11.9693 1.35567 12.034 1.75146 11.9881 2.1422C11.9421 2.53293 11.7873 2.9029 11.5413 3.20993L7.33127 8.30993C7.16606 8.50056 6.96179 8.65344 6.73232 8.75823C6.50285 8.86301 6.25354 8.91724 6.00127 8.91724C5.74901 8.91724 5.4997 8.86301 5.27023 8.75823C5.04075 8.65344 4.83649 8.50056 4.67127 8.30993L0.461272 3.20993C0.215266 2.9029 0.0604581 2.53293 0.0144892 2.1422C-0.0314797 1.75146 0.0332413 1.35567 0.201274 0.999929C0.344816 0.700105 0.570332 0.447062 0.85172 0.270088C1.13311 0.0931148 1.45886 -0.000551878 1.79127 -7.05719e-05Z" fill="#111111"/>
</g>
<defs>
<clipPath id="clip0">
<rect width="13.0012" height="9" fill="white" transform="translate(13.0012 9) rotate(-180)"/>
</clipPath>
</defs>
</svg>
