<svg width="36" height="34" viewBox="0 0 36 34" fill="none" xmlns="http://www.w3.org/2000/svg">
<path d="M33.3313 11.37C33.0359 11.4639 32.8747 11.7734 32.9711 12.0611C33.5034 13.6503 33.7734 15.312 33.7734 17.0001C33.7734 21.2482 32.0754 25.242 28.9922 28.2459C25.9089 31.2498 21.8095 32.904 17.4492 32.904C13.0888 32.904 8.98945 31.2498 5.90618 28.2459C2.82291 25.242 1.125 21.2481 1.125 17C1.125 12.7519 2.82298 8.7581 5.90625 5.7542C8.98952 2.7503 13.0889 1.09604 17.4492 1.09604C19.7618 1.09604 21.9962 1.55733 24.0906 2.46725C26.1143 3.34641 27.9077 4.59822 29.421 6.18796C29.6322 6.40984 29.9881 6.42299 30.216 6.21707C30.4438 6.01129 30.4571 5.6646 30.2459 5.44258C28.6287 3.74379 26.712 2.40601 24.5489 1.46623C22.3092 0.493354 19.9207 0 17.4492 0C12.7884 0 8.40649 1.76825 5.1108 4.97923C1.81505 8.19008 0 12.4591 0 17C0 21.5409 1.81505 25.8099 5.1108 29.0208C8.40649 32.2317 12.7884 34 17.4492 34C22.1101 34 26.492 32.2317 29.7877 29.0208C33.0834 25.8099 34.8985 21.5409 34.8985 17C34.8985 15.1962 34.6099 13.4201 34.0406 11.721C33.9442 11.4333 33.6266 11.2763 33.3313 11.37Z" fill="#FB0937"/>
<path d="M35.5056 5.16707C35.187 4.8562 34.7629 4.68502 34.3117 4.68502C33.8605 4.68502 33.4365 4.8562 33.118 5.16686L32.6145 5.65741C32.3948 5.87141 32.3948 6.21837 32.6145 6.43237C32.8341 6.64631 33.1903 6.64638 33.41 6.43231L33.9137 5.94156C34.0199 5.83798 34.1612 5.78099 34.3117 5.78099C34.4621 5.78099 34.6035 5.83798 34.7099 5.94183C34.8164 6.04554 34.875 6.18323 34.875 6.32976C34.875 6.47628 34.8164 6.61398 34.7099 6.71769L15.3142 25.6142C15.208 25.7178 15.0667 25.7748 14.9162 25.7748C14.7658 25.7748 14.6244 25.7178 14.518 25.6139L6.94315 18.2341C6.8367 18.1304 6.77805 17.9927 6.77805 17.8462C6.77805 17.6997 6.8367 17.562 6.94336 17.458C7.04953 17.3544 7.19086 17.2974 7.34133 17.2974C7.4918 17.2974 7.63312 17.3544 7.73958 17.4582L14.5185 24.0626C14.6239 24.1654 14.767 24.2231 14.9162 24.2231C15.0654 24.2231 15.2085 24.1654 15.314 24.0626L31.8268 7.97491C32.0465 7.76084 32.0465 7.41395 31.8268 7.19988C31.6072 6.98594 31.251 6.98594 31.0314 7.19988L14.9162 22.9001L8.53537 16.6834C8.21665 16.3726 7.79266 16.2014 7.34147 16.2014C6.89027 16.2014 6.46622 16.3726 6.1477 16.6832C5.82877 16.9939 5.65313 17.4069 5.65313 17.8462C5.65313 18.2854 5.82877 18.6984 6.1477 19.0092L13.7223 26.3888C14.041 26.6997 14.465 26.8709 14.9162 26.8709C15.3674 26.8709 15.7915 26.6997 16.1099 26.3891L35.5054 7.49286C35.8244 7.18213 36 6.76913 36 6.32983C36 5.89052 35.8244 5.47752 35.5056 5.16707Z" fill="#FB0937"/>
</svg>
