<svg width="165" height="55" viewBox="0 0 165 55" fill="none" xmlns="http://www.w3.org/2000/svg">
<path d="M73.9877 27.3433C73.9877 42.4446 57.425 54.6866 36.9939 54.6866C16.5627 54.6866 0 42.4446 0 27.3433C0 12.242 16.5627 0 36.9939 0C57.425 0 73.9877 12.242 73.9877 27.3433Z" fill="#FB0937"/>
<path fill-rule="evenodd" clip-rule="evenodd" d="M54.8272 18.0544C51.0947 17.135 46.5151 17.1583 44.6912 17.2886L44.6626 17.2907H44.6339C39.4253 17.2907 35.0263 20.1182 33.5163 21.5025L33.4758 21.5396L33.4306 21.5708C28.301 25.1221 21.7296 24.9677 20.3172 24.9346C20.223 24.9323 20.1517 24.9307 20.1054 24.9307H20.0482L19.9917 24.9226C16.6939 24.4515 14.5121 24.6923 13.1443 25.1332C11.7472 25.5834 11.2883 26.2049 11.2078 26.4194C11.0519 26.8352 10.5883 27.046 10.1724 26.89C9.75657 26.734 9.54586 26.2705 9.70181 25.8546C10.0235 24.9968 11.0121 24.1305 12.6509 23.6023C14.3103 23.0675 16.7361 22.8388 20.1652 23.3227C20.2141 23.3233 20.2741 23.3245 20.3444 23.3258C21.8133 23.3549 27.8182 23.4734 32.4716 20.2784C34.2108 18.7052 38.9359 15.6924 44.6052 15.6823C46.5424 15.547 51.3274 15.5214 55.2838 16.5105L55.3515 16.5274L55.4153 16.5558C56.5879 17.0769 58.468 17.7811 60.2748 18.1956C61.179 18.403 62.0364 18.5311 62.7631 18.5371C63.5103 18.5433 64.0097 18.4189 64.2932 18.2299C64.6628 17.9835 65.1621 18.0834 65.4085 18.4529C65.6548 18.8225 65.555 19.3218 65.1854 19.5682C64.5039 20.0225 63.616 20.1527 62.7497 20.1455C61.8629 20.1381 60.8807 19.9848 59.9152 19.7633C58.0158 19.3276 56.0707 18.6023 54.8272 18.0544Z" fill="white"/>
<path fill-rule="evenodd" clip-rule="evenodd" d="M52.9751 21.3193C53.1929 21.7064 53.0556 22.1967 52.6685 22.4145C51.2648 23.204 49.3611 23.7445 47.2585 24.1164C45.1428 24.4906 42.7656 24.7042 40.3769 24.809C35.6001 25.0186 30.7185 24.7957 27.6745 24.5251C27.2321 24.4858 26.9053 24.0953 26.9446 23.6529C26.9839 23.2105 27.3745 22.8837 27.8169 22.923C30.8045 23.1886 35.6137 23.408 40.3064 23.2021C42.6526 23.0992 44.9549 22.8905 46.9784 22.5326C49.015 22.1723 50.7101 21.6706 51.8799 21.0126C52.2671 20.7949 52.7574 20.9321 52.9751 21.3193Z" fill="white"/>
<path fill-rule="evenodd" clip-rule="evenodd" d="M22.9334 32.3223C22.0727 28.9558 19.5913 28.444 18.5766 28.5455L18.5367 28.5495H18.4966C16.9804 28.5495 15.9501 29.1703 15.2537 29.9426C14.5368 30.7375 14.1718 31.7 14.0604 32.3123C13.981 32.7493 13.5623 33.0391 13.1253 32.9597C12.6883 32.8802 12.3985 32.4616 12.478 32.0246C12.6347 31.1625 13.1141 29.9134 14.0592 28.8654C15.0187 27.8015 16.4557 26.952 18.4579 26.9412C20.1333 26.7935 23.4338 27.692 24.5042 31.9734L24.5143 32.0136L24.5201 32.0547C24.6729 33.1239 24.5669 34.7376 23.7012 36.1148C22.7992 37.5497 21.1511 38.6021 18.4966 38.6021C18.0524 38.6021 17.6924 38.2421 17.6924 37.7979C17.6924 37.3538 18.0524 36.9937 18.4966 36.9937C20.6674 36.9937 21.767 36.1696 22.3394 35.2589C22.9381 34.3064 23.0399 33.1289 22.9334 32.3223Z" fill="white"/>
<path fill-rule="evenodd" clip-rule="evenodd" d="M62.5622 23.1555C62.8763 22.8414 63.3855 22.8414 63.6996 23.1555C64.2387 23.6946 64.566 24.4215 64.7679 25.1662C64.9717 25.9183 65.0644 26.7514 65.0908 27.5685C65.1423 29.1649 64.9432 30.7981 64.7378 31.8528C64.7163 32.4435 64.4747 32.9297 64.098 33.2935C63.7245 33.6542 63.2489 33.8672 62.8012 33.9965C61.9102 34.2539 60.8904 34.2477 60.2273 34.174L59.4625 34.089L59.5137 33.3212C59.6602 31.1237 58.9632 29.8716 58.1465 29.1533C57.2937 28.4033 56.2093 28.1473 55.4909 28.1473C53.2045 28.1473 51.9178 29.1351 51.1785 30.3297C50.4069 31.5767 50.2019 33.1092 50.2621 34.1317L50.3122 34.9831H35.7876C35.3435 34.9831 34.9834 34.6231 34.9834 34.1789C34.9834 33.7348 35.3435 33.3747 35.7876 33.3747H48.6544C48.7129 32.2028 49.0247 30.7537 49.8108 29.4833C50.8341 27.8297 52.6303 26.5389 55.4909 26.5389C56.5149 26.5389 58.004 26.886 59.2087 27.9455C60.3158 28.9193 61.1074 30.4284 61.1405 32.6092C61.5467 32.6038 61.9823 32.5589 62.3548 32.4513C62.6611 32.3628 62.864 32.2491 62.9806 32.1365C63.0758 32.0446 63.1309 31.9407 63.1309 31.7663V31.6866L63.1465 31.6086C63.3383 30.6494 63.531 29.1039 63.4832 27.6203C63.4593 26.8792 63.376 26.1793 63.2155 25.5869C63.0529 24.9871 62.8273 24.5579 62.5622 24.2928C62.2482 23.9787 62.2482 23.4695 62.5622 23.1555Z" fill="white"/>
<path fill-rule="evenodd" clip-rule="evenodd" d="M60.3773 32.5732C60.8202 32.6073 61.1516 32.9939 61.1175 33.4367C61.0407 34.435 60.6329 35.8853 59.6178 37.0181C58.5616 38.1966 56.9129 38.9545 54.5639 38.5931C54.1249 38.5256 53.8238 38.1149 53.8913 37.6759C53.9588 37.237 54.3695 36.9358 54.8085 37.0034C56.6413 37.2854 57.7404 36.7029 58.42 35.9446C59.1406 35.1405 59.4566 34.0576 59.5138 33.3134C59.5479 32.8705 59.9345 32.5391 60.3773 32.5732Z" fill="white"/>
<path d="M83.9268 5.52148L83.9268 49.6933" stroke="#FB0937" stroke-width="2.20859" stroke-linecap="round" stroke-linejoin="round"/>
<path d="M99.8498 19.0563C101.161 19.0563 102.227 19.3666 103.047 19.9873C103.879 20.608 104.294 21.3985 104.294 22.3589C104.294 23.6705 103.633 24.6133 102.309 25.1871C103.843 25.679 104.61 26.6452 104.61 28.0857C104.61 29.1631 104.183 30.0473 103.328 30.7383C102.485 31.4293 101.355 31.7748 99.9376 31.7748C98.6845 31.7748 97.6305 31.605 96.7756 31.2653C95.9324 30.9257 95.1653 30.4104 94.4743 29.7194L95.9148 27.8398C96.9805 28.8821 98.2864 29.4032 99.8322 29.4032C100.43 29.4032 100.921 29.2744 101.308 29.0167C101.706 28.7474 101.905 28.3843 101.905 27.9276C101.905 27.4357 101.683 27.0727 101.238 26.8384C100.804 26.6042 100.213 26.4871 99.4633 26.4871H98.0404V24.2385H99.4282C100.892 24.2385 101.624 23.7642 101.624 22.8156C101.624 22.394 101.443 22.0602 101.08 21.8143C100.716 21.5683 100.236 21.4454 99.639 21.4454C98.3039 21.4454 97.1972 21.8963 96.3188 22.798L94.8959 21.0765C96.1842 19.7297 97.8355 19.0563 99.8498 19.0563ZM110.852 31.7396C109.927 31.7396 109.154 31.482 108.533 30.9667C107.924 30.4514 107.62 29.737 107.62 28.8235C107.62 27.828 107.959 27.0785 108.639 26.5749C109.33 26.0713 110.255 25.8196 111.414 25.8196C112.199 25.8196 112.966 25.9484 113.715 26.206V26.0479C113.715 24.9002 113.042 24.3264 111.695 24.3264C110.887 24.3264 110.02 24.4962 109.095 24.8358L108.428 22.798C109.575 22.2944 110.793 22.0426 112.082 22.0426C113.499 22.0426 114.559 22.394 115.261 23.0967C115.941 23.7759 116.28 24.7772 116.28 26.1006V31.564H113.698V30.5451C112.983 31.3414 112.035 31.7396 110.852 31.7396ZM111.66 29.8951C112.281 29.8951 112.784 29.7429 113.171 29.4384C113.557 29.1222 113.751 28.724 113.751 28.2438V27.7695C113.247 27.5353 112.679 27.4182 112.047 27.4182C111.461 27.4182 111.004 27.5353 110.676 27.7695C110.36 27.992 110.202 28.3199 110.202 28.7532C110.202 29.1046 110.337 29.3857 110.606 29.5965C110.875 29.7956 111.227 29.8951 111.66 29.8951ZM121.195 22.148H128.767V31.564H126.097V24.4318H123.707C123.707 25.6732 123.661 26.7213 123.567 27.5763C123.473 28.4312 123.344 29.128 123.18 29.6667C123.016 30.2054 122.788 30.6212 122.495 30.914C122.203 31.2068 121.886 31.4059 121.547 31.5113C121.207 31.6167 120.785 31.6694 120.282 31.6694C119.802 31.6694 119.351 31.6167 118.929 31.5113L119.105 29.3505C119.316 29.3857 119.503 29.4032 119.667 29.4032C119.948 29.4032 120.171 29.3388 120.335 29.21C120.499 29.0694 120.651 28.765 120.791 28.2965C120.944 27.8163 121.049 27.0844 121.108 26.1006C121.166 25.1052 121.195 23.7876 121.195 22.148ZM140.903 30.3518C139.931 31.3005 138.719 31.7748 137.267 31.7748C135.815 31.7748 134.602 31.3063 133.63 30.3694C132.67 29.4208 132.19 28.2555 132.19 26.8736C132.19 25.5033 132.676 24.3439 133.648 23.3953C134.632 22.4467 135.85 21.9724 137.302 21.9724C138.754 21.9724 139.96 22.4467 140.921 23.3953C141.893 24.3322 142.379 25.4916 142.379 26.8736C142.379 28.2438 141.887 29.4032 140.903 30.3518ZM137.302 29.4735C138.04 29.4735 138.631 29.2276 139.076 28.7357C139.521 28.2321 139.744 27.6114 139.744 26.8736C139.744 26.1592 139.509 25.5502 139.041 25.0466C138.584 24.5313 137.993 24.2737 137.267 24.2737C136.529 24.2737 135.937 24.5254 135.492 25.029C135.047 25.5209 134.825 26.1358 134.825 26.8736C134.825 27.588 135.053 28.2028 135.51 28.7181C135.978 29.2217 136.576 29.4735 137.302 29.4735ZM152.674 24.4318H148.476V31.564H145.805V22.148H152.674V24.4318ZM94.4216 48.564L99.6917 36.1792H102.186L107.456 48.564H104.628L103.504 45.8059H98.3039L97.1796 48.564H94.4216ZM99.2701 43.4168H102.538L100.904 39.4291L99.2701 43.4168ZM110.566 39.148H115.731C116.691 39.148 117.453 39.3589 118.015 39.7805C118.589 40.2021 118.876 40.7759 118.876 41.502C118.876 42.4858 118.378 43.1943 117.382 43.6276C118.612 44.0024 119.227 44.7929 119.227 45.9992C119.227 46.7956 118.911 47.4221 118.278 47.8789C117.658 48.3356 116.803 48.564 115.714 48.564H110.566V39.148ZM113.201 42.925H115.081C115.444 42.925 115.719 42.8371 115.907 42.6614C116.106 42.4858 116.205 42.2574 116.205 41.9763C116.205 41.7304 116.112 41.5254 115.924 41.3615C115.749 41.1975 115.479 41.1156 115.116 41.1156H113.201V42.925ZM113.201 46.4735H115.309C116.118 46.4735 116.522 46.1573 116.522 45.5249C116.522 44.9159 116.094 44.6114 115.239 44.6114H113.201V46.4735ZM129.953 39.148V41.4318H127.16V48.564H124.455V41.4318H121.662V39.148H129.953ZM141.16 47.3518C140.188 48.3005 138.976 48.7748 137.524 48.7748C136.072 48.7748 134.86 48.3063 133.888 47.3694C132.927 46.4208 132.447 45.2555 132.447 43.8736C132.447 42.5033 132.933 41.3439 133.905 40.3953C134.889 39.4467 136.107 38.9724 137.559 38.9724C139.011 38.9724 140.218 39.4467 141.178 40.3953C142.15 41.3322 142.636 42.4916 142.636 43.8736C142.636 45.2438 142.144 46.4032 141.16 47.3518ZM137.559 46.4735C138.297 46.4735 138.888 46.2276 139.333 45.7357C139.778 45.2321 140.001 44.6114 140.001 43.8736C140.001 43.1592 139.767 42.5502 139.298 42.0466C138.842 41.5313 138.25 41.2737 137.524 41.2737C136.786 41.2737 136.195 41.5254 135.75 42.029C135.305 42.5209 135.082 43.1358 135.082 43.8736C135.082 44.588 135.311 45.2028 135.767 45.7181C136.236 46.2217 136.833 46.4735 137.559 46.4735Z" fill="#FB0937"/>
<path d="M96.4616 4.26495H103.415V14H101.273V6.19805H98.4642V6.93513C98.4642 8.83579 98.3483 10.31 98.1165 11.3576C97.894 12.4053 97.5649 13.1285 97.1291 13.5272C96.6934 13.9258 96.0861 14.1252 95.3073 14.1252C94.8715 14.1252 94.496 14.0834 94.1808 14L94.3199 12.2338C94.4497 12.2523 94.5609 12.2616 94.6536 12.2616C94.9689 12.2616 95.2238 12.1967 95.4185 12.0669C95.6225 11.9278 95.8079 11.6543 95.9748 11.2464C96.151 10.8384 96.2761 10.2311 96.3503 9.42453C96.4245 8.60864 96.4616 7.56096 96.4616 6.28149V4.26495ZM112.896 13.0404C112.127 13.7914 111.167 14.1669 110.018 14.1669C108.868 14.1669 107.908 13.796 107.139 13.0543C106.378 12.3033 105.998 11.3808 105.998 10.2868C105.998 9.20201 106.383 8.28413 107.153 7.53314C107.931 6.78215 108.896 6.40666 110.045 6.40666C111.195 6.40666 112.15 6.78215 112.91 7.53314C113.68 8.27486 114.065 9.19274 114.065 10.2868C114.065 11.3715 113.675 12.2894 112.896 13.0404ZM110.045 12.345C110.629 12.345 111.098 12.1503 111.45 11.7609C111.802 11.3623 111.978 10.8709 111.978 10.2868C111.978 9.72121 111.793 9.2391 111.422 8.84042C111.061 8.43248 110.592 8.22851 110.018 8.22851C109.433 8.22851 108.965 8.42784 108.613 8.82652C108.261 9.21592 108.084 9.70267 108.084 10.2868C108.084 10.8523 108.265 11.3391 108.627 11.747C108.998 12.1457 109.471 12.345 110.045 12.345ZM116.43 14V6.54573H118.571L120.588 9.67486L122.632 6.54573H124.774V14H122.632V9.52188L120.56 12.5815L118.516 9.5636V14H116.43ZM131.218 12.345C131.746 12.345 132.177 12.1642 132.511 11.8027C132.845 11.4318 133.012 10.9729 133.012 10.4258C133.012 9.8881 132.835 9.42916 132.483 9.04903C132.14 8.6689 131.709 8.47884 131.19 8.47884C130.661 8.47884 130.23 8.6689 129.896 9.04903C129.563 9.41989 129.396 9.87883 129.396 10.4258C129.396 10.9636 129.567 11.4179 129.91 11.7888C130.263 12.1596 130.698 12.345 131.218 12.345ZM131.19 14.1669C129.929 14.1669 128.965 13.7868 128.297 13.0265C127.629 12.257 127.296 11.1537 127.296 9.71658C127.296 9.20665 127.314 8.75698 127.351 8.36758C127.388 7.9689 127.467 7.54705 127.588 7.10202C127.718 6.65699 127.889 6.27686 128.102 5.96163C128.325 5.6464 128.631 5.36362 129.02 5.11329C129.419 4.86296 129.887 4.6868 130.425 4.58481L134.416 3.84773L134.75 5.5166L130.661 6.32322C129.53 6.555 128.928 7.13911 128.853 8.07553C129.029 7.76957 129.354 7.48679 129.827 7.22719C130.3 6.95831 130.879 6.82388 131.565 6.82388C132.529 6.82388 133.359 7.16692 134.055 7.85301C134.75 8.5391 135.098 9.38744 135.098 10.398C135.098 11.4457 134.727 12.3358 133.985 13.0682C133.243 13.8007 132.312 14.1669 131.19 14.1669ZM139.552 14.1391C138.82 14.1391 138.208 13.9351 137.716 13.5272C137.234 13.1192 136.993 12.5536 136.993 11.8305C136.993 11.0424 137.262 10.449 137.8 10.0504C138.347 9.65168 139.079 9.45234 139.997 9.45234C140.618 9.45234 141.226 9.55433 141.819 9.7583V9.63313C141.819 8.72453 141.286 8.27023 140.22 8.27023C139.58 8.27023 138.894 8.40466 138.161 8.67354L137.633 7.0603C138.542 6.66163 139.506 6.46229 140.526 6.46229C141.647 6.46229 142.487 6.74043 143.043 7.29672C143.581 7.83447 143.849 8.62718 143.849 9.67486V14H141.805V13.1934C141.24 13.8238 140.489 14.1391 139.552 14.1391ZM140.192 12.6788C140.683 12.6788 141.082 12.5583 141.388 12.3172C141.694 12.0669 141.847 11.7517 141.847 11.3715V10.996C141.448 10.8106 140.998 10.7179 140.498 10.7179C140.034 10.7179 139.673 10.8106 139.413 10.996C139.163 11.1722 139.038 11.4318 139.038 11.7748C139.038 12.053 139.144 12.2755 139.357 12.4424C139.571 12.6 139.849 12.6788 140.192 12.6788ZM146.503 16.2252V6.54573H148.617V7.61659C149.21 6.80997 149.984 6.40666 150.939 6.40666C151.866 6.40666 152.664 6.75434 153.331 7.4497C153.999 8.14506 154.333 9.09075 154.333 10.2868C154.333 11.4735 153.999 12.4146 153.331 13.1099C152.673 13.796 151.876 14.1391 150.939 14.1391C150.012 14.1391 149.238 13.7682 148.617 13.0265V16.2252H146.503ZM149.104 11.7748C149.456 12.155 149.887 12.345 150.397 12.345C150.907 12.345 151.338 12.155 151.69 11.7748C152.043 11.3854 152.219 10.8801 152.219 10.259C152.219 9.65631 152.043 9.16492 151.69 8.78479C151.338 8.39539 150.907 8.20069 150.397 8.20069C149.887 8.20069 149.456 8.39539 149.104 8.78479C148.76 9.16492 148.589 9.66558 148.589 10.2868C148.589 10.8894 148.76 11.3854 149.104 11.7748ZM158.864 12.1921H161.409V8.35367H159.42V8.52056C159.401 10.1245 159.216 11.3484 158.864 12.1921ZM162.507 14H157.835L157.682 15.7523H155.901V12.1921H156.708C157.19 11.1629 157.431 9.49406 157.431 7.18546V6.54573H163.523V12.1921H164.538L164.288 15.7523H162.507V14Z" fill="#FB0937"/>
</svg>
