<svg width="12" height="16" viewBox="0 0 12 16" fill="none" xmlns="http://www.w3.org/2000/svg">
<path d="M3.523 10.424C3.663 10.342 3.816 10.262 3.982 10.186C3.84177 10.3951 3.6916 10.5973 3.532 10.792C3.252 11.129 3.034 11.308 2.897 11.364C2.88563 11.3688 2.87393 11.3728 2.862 11.376C2.85202 11.3622 2.84332 11.3474 2.836 11.332C2.78 11.222 2.782 11.116 2.876 10.972C2.982 10.807 3.195 10.618 3.523 10.424ZM5.978 8.777C5.859 8.802 5.741 8.827 5.622 8.855C5.79831 8.50967 5.96504 8.15954 6.122 7.805C6.27999 8.09797 6.45013 8.38422 6.632 8.663C6.415 8.695 6.196 8.733 5.978 8.777ZM8.503 9.716C8.34769 9.5907 8.20226 9.45363 8.068 9.306C8.296 9.311 8.502 9.328 8.68 9.36C8.997 9.417 9.146 9.507 9.198 9.569C9.21439 9.58632 9.22367 9.60916 9.224 9.633C9.22049 9.70354 9.1999 9.77218 9.164 9.833C9.14383 9.88172 9.11146 9.92442 9.07 9.957C9.04936 9.96966 9.02504 9.97495 9.001 9.972C8.911 9.969 8.743 9.906 8.503 9.716ZM6.278 4.97C6.238 5.214 6.17 5.494 6.078 5.799C6.0441 5.6848 6.01442 5.56939 5.989 5.453C5.913 5.1 5.902 4.823 5.943 4.631C5.981 4.454 6.053 4.383 6.139 4.348C6.18512 4.32767 6.23398 4.31419 6.284 4.308C6.297 4.338 6.312 4.4 6.316 4.506C6.321 4.628 6.309 4.783 6.278 4.971V4.97Z" fill="#FB0937"/>
<path fill-rule="evenodd" clip-rule="evenodd" d="M2 0H10C10.5304 0 11.0391 0.210714 11.4142 0.585786C11.7893 0.960859 12 1.46957 12 2V14C12 14.5304 11.7893 15.0391 11.4142 15.4142C11.0391 15.7893 10.5304 16 10 16H2C1.46957 16 0.960859 15.7893 0.585786 15.4142C0.210714 15.0391 0 14.5304 0 14V2C0 1.46957 0.210714 0.960859 0.585786 0.585786C0.960859 0.210714 1.46957 0 2 0V0ZM2.165 11.668C2.255 11.848 2.395 12.011 2.603 12.087C2.81 12.162 3.015 12.127 3.183 12.057C3.501 11.927 3.818 11.621 4.109 11.271C4.442 10.87 4.792 10.344 5.13 9.761C5.78252 9.56754 6.45074 9.43169 7.127 9.355C7.427 9.738 7.737 10.068 8.037 10.305C8.317 10.525 8.64 10.708 8.971 10.722C9.1513 10.7309 9.3298 10.6826 9.481 10.584C9.636 10.483 9.751 10.337 9.835 10.168C9.925 9.987 9.98 9.798 9.973 9.605C9.96667 9.41472 9.89618 9.23217 9.773 9.087C9.547 8.817 9.177 8.687 8.813 8.622C8.37145 8.55361 7.92343 8.53683 7.478 8.572C7.10186 8.04025 6.77389 7.47602 6.498 6.886C6.748 6.226 6.935 5.602 7.018 5.092C7.054 4.874 7.073 4.666 7.066 4.478C7.06476 4.29139 7.02134 4.10747 6.939 3.94C6.89156 3.84758 6.82414 3.76687 6.74164 3.70374C6.65913 3.64061 6.56361 3.59663 6.462 3.575C6.26 3.532 6.052 3.575 5.861 3.652C5.484 3.802 5.285 4.122 5.21 4.475C5.137 4.815 5.17 5.211 5.256 5.611C5.344 6.017 5.494 6.459 5.686 6.906C5.37886 7.66979 5.02417 8.41358 4.624 9.133C4.10864 9.29515 3.61188 9.51135 3.142 9.778C2.772 9.998 2.443 10.258 2.245 10.565C2.035 10.891 1.97 11.279 2.165 11.668V11.668Z" fill="#FB0937"/>
</svg>
