<svg width="21" height="20" viewBox="0 0 21 20" fill="none" xmlns="http://www.w3.org/2000/svg">
<path d="M10.994 0C9.01618 0 7.08278 0.58649 5.43829 1.6853C3.7938 2.78412 2.51207 4.3459 1.7552 6.17317C0.998321 8.00043 0.800288 10.0111 1.18614 11.9509C1.57199 13.8907 2.5244 15.6725 3.92292 17.0711C5.32145 18.4696 7.10328 19.422 9.04309 19.8079C10.9829 20.1937 12.9936 19.9957 14.8208 19.2388C16.6481 18.4819 18.2099 17.2002 19.3087 15.5557C20.4075 13.9112 20.994 11.9778 20.994 10C20.994 8.68678 20.7353 7.38642 20.2328 6.17317C19.7302 4.95991 18.9936 3.85752 18.0651 2.92893C17.1365 2.00035 16.0341 1.26375 14.8208 0.761205C13.6076 0.258658 12.3072 0 10.994 0ZM14.174 15.152C14.1367 15.2454 14.0798 15.3298 14.0072 15.3994C13.9346 15.469 13.8479 15.5223 13.753 15.5556C13.658 15.589 13.5571 15.6016 13.4569 15.5927C13.3567 15.5838 13.2595 15.5536 13.172 15.504L10.457 13.394L8.71499 15.002C8.67456 15.0319 8.62727 15.0511 8.57747 15.0579C8.52767 15.0647 8.47696 15.0589 8.42999 15.041L8.76399 12.052L8.77399 12.061L8.78099 12.002C8.78099 12.002 13.666 7.554 13.865 7.365C14.067 7.176 14 7.135 14 7.135C14.012 6.905 13.639 7.135 13.639 7.135L7.16599 11.299L4.47099 10.381C4.47099 10.381 4.05699 10.233 4.01799 9.906C3.97699 9.582 4.48399 9.406 4.48399 9.406L15.201 5.148C15.201 5.148 16.082 4.756 16.082 5.406L14.174 15.152Z" fill="#FB0937"/>
</svg>
